<svg width="320" height="48" viewBox="0 0 320 48" fill="none" xmlns="http://www.w3.org/2000/svg">
<rect width="320" height="48" rx="16" fill="url(#paint0_linear_228_20837)"/>
<rect x="209" y="10" width="1" height="1" fill="#666878" fill-opacity="0.5"/>
<rect x="209" y="37" width="1" height="1" fill="#666878" fill-opacity="0.5"/>
<rect x="218" y="10" width="1" height="1" fill="#666878" fill-opacity="0.5"/>
<rect x="218" y="19" width="1" height="1" fill="#666878" fill-opacity="0.5"/>
<rect x="218" y="28" width="1" height="1" fill="#666878" fill-opacity="0.5"/>
<rect x="218" y="37" width="1" height="1" fill="#666878"/>
<rect x="227" y="10" width="1" height="1" fill="#666878" fill-opacity="0.5"/>
<rect x="227" y="19" width="1" height="1" fill="#666878" fill-opacity="0.5"/>
<rect x="227" y="28" width="1" height="1" fill="url(#paint1_linear_228_20837)"/>
<rect x="227" y="37" width="1" height="1" fill="#666878"/>
<rect x="236" y="10" width="1" height="1" fill="#666878"/>
<rect x="236" y="19" width="1" height="1" fill="url(#paint2_linear_228_20837)"/>
<rect x="236" y="28" width="1" height="1" fill="#666878"/>
<rect x="236" y="37" width="1" height="1" fill="#666878"/>
<rect x="245" y="10" width="1" height="1" fill="#666878" fill-opacity="0.5"/>
<rect x="245" y="19" width="1" height="1" fill="#666878" fill-opacity="0.5"/>
<rect x="245" y="28" width="1" height="1" fill="#666878"/>
<rect x="245" y="37" width="1" height="1" fill="#666878" fill-opacity="0.5"/>
<rect x="254" y="10" width="1" height="1" fill="#666878" fill-opacity="0.5"/>
<rect x="254" y="19" width="1" height="1" fill="#666878" fill-opacity="0.5"/>
<rect x="254" y="28" width="1" height="1" fill="#666878"/>
<rect x="254" y="37" width="1" height="1" fill="#666878" fill-opacity="0.5"/>
<rect x="263" y="10" width="1" height="1" fill="#666878" fill-opacity="0.5"/>
<rect x="263" y="19" width="1" height="1" fill="#666878" fill-opacity="0.5"/>
<rect x="263" y="28" width="1" height="1" fill="#666878" fill-opacity="0.5"/>
<rect x="263" y="37" width="1" height="1" fill="#666878" fill-opacity="0.5"/>
<rect x="272" y="10" width="1" height="1" fill="url(#paint3_linear_228_20837)"/>
<rect x="272" y="19" width="1" height="1" fill="#666878" fill-opacity="0.5"/>
<rect x="272" y="28" width="1" height="1" fill="#666878"/>
<rect x="272" y="37" width="1" height="1" fill="#666878"/>
<rect x="281" y="10" width="1" height="1" fill="url(#paint4_linear_228_20837)"/>
<rect x="281" y="19" width="1" height="1" fill="#666878"/>
<rect x="281" y="28" width="1" height="1" fill="#666878"/>
<rect x="281" y="37" width="1" height="1" fill="url(#paint5_linear_228_20837)"/>
<rect x="290" y="10" width="1" height="1" fill="#666878"/>
<rect x="290" y="19" width="1" height="1" fill="#666878"/>
<rect x="290" y="28" width="1" height="1" fill="url(#paint6_linear_228_20837)"/>
<rect x="290" y="37" width="1" height="1" fill="#666878"/>
<rect x="299" y="19" width="1" height="1" fill="#666878"/>
<rect x="299" y="28" width="1" height="1" fill="url(#paint7_linear_228_20837)"/>
<rect width="1" height="1" transform="matrix(-1 0 0 1 111 10)" fill="#666878" fill-opacity="0.5"/>
<rect width="1" height="1" transform="matrix(-1 0 0 1 111 37)" fill="#666878" fill-opacity="0.5"/>
<rect width="1" height="1" transform="matrix(-1 0 0 1 102 10)" fill="#666878" fill-opacity="0.5"/>
<rect width="1" height="1" transform="matrix(-1 0 0 1 102 19)" fill="#666878" fill-opacity="0.5"/>
<rect width="1" height="1" transform="matrix(-1 0 0 1 102 28)" fill="#666878" fill-opacity="0.5"/>
<rect width="1" height="1" transform="matrix(-1 0 0 1 102 37)" fill="#666878"/>
<rect width="1" height="1" transform="matrix(-1 0 0 1 93 10)" fill="#666878" fill-opacity="0.5"/>
<rect width="1" height="1" transform="matrix(-1 0 0 1 93 19)" fill="#666878" fill-opacity="0.5"/>
<rect width="1" height="1" transform="matrix(-1 0 0 1 93 28)" fill="url(#paint8_linear_228_20837)"/>
<rect width="1" height="1" transform="matrix(-1 0 0 1 93 37)" fill="#666878"/>
<rect width="1" height="1" transform="matrix(-1 0 0 1 84 10)" fill="#666878"/>
<rect width="1" height="1" transform="matrix(-1 0 0 1 84 19)" fill="url(#paint9_linear_228_20837)"/>
<rect width="1" height="1" transform="matrix(-1 0 0 1 84 28)" fill="#666878"/>
<rect width="1" height="1" transform="matrix(-1 0 0 1 84 37)" fill="#666878"/>
<rect width="1" height="1" transform="matrix(-1 0 0 1 75 10)" fill="#666878" fill-opacity="0.5"/>
<rect width="1" height="1" transform="matrix(-1 0 0 1 75 19)" fill="#666878" fill-opacity="0.5"/>
<rect width="1" height="1" transform="matrix(-1 0 0 1 75 28)" fill="#666878"/>
<rect width="1" height="1" transform="matrix(-1 0 0 1 75 37)" fill="#666878" fill-opacity="0.5"/>
<rect width="1" height="1" transform="matrix(-1 0 0 1 66 10)" fill="#666878" fill-opacity="0.5"/>
<rect width="1" height="1" transform="matrix(-1 0 0 1 66 19)" fill="#666878" fill-opacity="0.5"/>
<rect width="1" height="1" transform="matrix(-1 0 0 1 66 28)" fill="#666878"/>
<rect width="1" height="1" transform="matrix(-1 0 0 1 66 37)" fill="#666878" fill-opacity="0.5"/>
<rect width="1" height="1" transform="matrix(-1 0 0 1 57 10)" fill="#666878" fill-opacity="0.5"/>
<rect width="1" height="1" transform="matrix(-1 0 0 1 57 19)" fill="#666878" fill-opacity="0.5"/>
<rect width="1" height="1" transform="matrix(-1 0 0 1 57 28)" fill="#666878" fill-opacity="0.5"/>
<rect width="1" height="1" transform="matrix(-1 0 0 1 57 37)" fill="#666878" fill-opacity="0.5"/>
<rect width="1" height="1" transform="matrix(-1 0 0 1 48 10)" fill="url(#paint10_linear_228_20837)"/>
<rect width="1" height="1" transform="matrix(-1 0 0 1 48 19)" fill="#666878" fill-opacity="0.5"/>
<rect width="1" height="1" transform="matrix(-1 0 0 1 48 28)" fill="#666878"/>
<rect width="1" height="1" transform="matrix(-1 0 0 1 48 37)" fill="#666878"/>
<rect width="1" height="1" transform="matrix(-1 0 0 1 39 10)" fill="url(#paint11_linear_228_20837)"/>
<rect width="1" height="1" transform="matrix(-1 0 0 1 39 19)" fill="#666878"/>
<rect width="1" height="1" transform="matrix(-1 0 0 1 39 28)" fill="#666878"/>
<rect width="1" height="1" transform="matrix(-1 0 0 1 39 37)" fill="url(#paint12_linear_228_20837)"/>
<rect width="1" height="1" transform="matrix(-1 0 0 1 30 10)" fill="#666878"/>
<rect width="1" height="1" transform="matrix(-1 0 0 1 30 19)" fill="#666878"/>
<rect width="1" height="1" transform="matrix(-1 0 0 1 30 28)" fill="url(#paint13_linear_228_20837)"/>
<rect width="1" height="1" transform="matrix(-1 0 0 1 30 37)" fill="#666878"/>
<rect width="1" height="1" transform="matrix(-1 0 0 1 21 19)" fill="#666878"/>
<rect width="1" height="1" transform="matrix(-1 0 0 1 21 28)" fill="url(#paint14_linear_228_20837)"/>
<defs>
<linearGradient id="paint0_linear_228_20837" x1="0" y1="48" x2="320" y2="48" gradientUnits="userSpaceOnUse">
<stop stop-color="#F2848E" stop-opacity="0.01"/>
<stop offset="0.496947" stop-color="#C184EC" stop-opacity="0.2"/>
<stop offset="1" stop-color="#659EFD" stop-opacity="0.01"/>
</linearGradient>
<linearGradient id="paint1_linear_228_20837" x1="226.963" y1="29" x2="227.963" y2="29.0743" gradientUnits="userSpaceOnUse">
<stop stop-color="#FF8473"/>
<stop offset="0.490859" stop-color="#B784FF"/>
<stop offset="1" stop-color="#2EB0FB"/>
</linearGradient>
<linearGradient id="paint2_linear_228_20837" x1="235.963" y1="20" x2="236.963" y2="20.0743" gradientUnits="userSpaceOnUse">
<stop stop-color="#FF8473"/>
<stop offset="0.490859" stop-color="#B784FF"/>
<stop offset="1" stop-color="#2EB0FB"/>
</linearGradient>
<linearGradient id="paint3_linear_228_20837" x1="271.963" y1="11" x2="272.963" y2="11.0743" gradientUnits="userSpaceOnUse">
<stop stop-color="#FF8473"/>
<stop offset="0.490859" stop-color="#B784FF"/>
<stop offset="1" stop-color="#2EB0FB"/>
</linearGradient>
<linearGradient id="paint4_linear_228_20837" x1="280.963" y1="11" x2="281.963" y2="11.0743" gradientUnits="userSpaceOnUse">
<stop stop-color="#FF8473"/>
<stop offset="0.490859" stop-color="#B784FF"/>
<stop offset="1" stop-color="#2EB0FB"/>
</linearGradient>
<linearGradient id="paint5_linear_228_20837" x1="280.963" y1="38" x2="281.963" y2="38.0743" gradientUnits="userSpaceOnUse">
<stop stop-color="#FF8473"/>
<stop offset="0.490859" stop-color="#B784FF"/>
<stop offset="1" stop-color="#2EB0FB"/>
</linearGradient>
<linearGradient id="paint6_linear_228_20837" x1="289.963" y1="29" x2="290.963" y2="29.0743" gradientUnits="userSpaceOnUse">
<stop stop-color="#FF8473"/>
<stop offset="0.490859" stop-color="#B784FF"/>
<stop offset="1" stop-color="#2EB0FB"/>
</linearGradient>
<linearGradient id="paint7_linear_228_20837" x1="298.963" y1="29" x2="299.963" y2="29.0743" gradientUnits="userSpaceOnUse">
<stop stop-color="#FF8473"/>
<stop offset="0.490859" stop-color="#B784FF"/>
<stop offset="1" stop-color="#2EB0FB"/>
</linearGradient>
<linearGradient id="paint8_linear_228_20837" x1="-0.0371556" y1="1" x2="0.962844" y2="1.07431" gradientUnits="userSpaceOnUse">
<stop stop-color="#FF8473"/>
<stop offset="0.490859" stop-color="#B784FF"/>
<stop offset="1" stop-color="#2EB0FB"/>
</linearGradient>
<linearGradient id="paint9_linear_228_20837" x1="-0.0371556" y1="1" x2="0.962844" y2="1.07431" gradientUnits="userSpaceOnUse">
<stop stop-color="#FF8473"/>
<stop offset="0.490859" stop-color="#B784FF"/>
<stop offset="1" stop-color="#2EB0FB"/>
</linearGradient>
<linearGradient id="paint10_linear_228_20837" x1="-0.0371556" y1="1" x2="0.962844" y2="1.07431" gradientUnits="userSpaceOnUse">
<stop stop-color="#FF8473"/>
<stop offset="0.490859" stop-color="#B784FF"/>
<stop offset="1" stop-color="#2EB0FB"/>
</linearGradient>
<linearGradient id="paint11_linear_228_20837" x1="-0.0371556" y1="1" x2="0.962844" y2="1.07431" gradientUnits="userSpaceOnUse">
<stop stop-color="#FF8473"/>
<stop offset="0.490859" stop-color="#B784FF"/>
<stop offset="1" stop-color="#2EB0FB"/>
</linearGradient>
<linearGradient id="paint12_linear_228_20837" x1="-0.0371556" y1="1" x2="0.962844" y2="1.07431" gradientUnits="userSpaceOnUse">
<stop stop-color="#FF8473"/>
<stop offset="0.490859" stop-color="#B784FF"/>
<stop offset="1" stop-color="#2EB0FB"/>
</linearGradient>
<linearGradient id="paint13_linear_228_20837" x1="-0.0371556" y1="1" x2="0.962844" y2="1.07431" gradientUnits="userSpaceOnUse">
<stop stop-color="#FF8473"/>
<stop offset="0.490859" stop-color="#B784FF"/>
<stop offset="1" stop-color="#2EB0FB"/>
</linearGradient>
<linearGradient id="paint14_linear_228_20837" x1="-0.0371556" y1="1" x2="0.962844" y2="1.07431" gradientUnits="userSpaceOnUse">
<stop stop-color="#FF8473"/>
<stop offset="0.490859" stop-color="#B784FF"/>
<stop offset="1" stop-color="#2EB0FB"/>
</linearGradient>
</defs>
</svg>
