<svg width="44" height="44" viewBox="0 0 44 44" fill="none" xmlns="http://www.w3.org/2000/svg">
<rect width="44" height="44" fill="#313338"/>
<path d="M22.6023 24.3636V23.9034C22.6023 23.5852 22.6676 23.294 22.7983 23.0298C22.9318 22.7628 23.125 22.5497 23.3778 22.3906C23.6335 22.2287 23.9432 22.1477 24.3068 22.1477C24.6761 22.1477 24.9858 22.2287 25.2358 22.3906C25.4858 22.5497 25.6747 22.7628 25.8026 23.0298C25.9304 23.294 25.9943 23.5852 25.9943 23.9034V24.3636C25.9943 24.6818 25.929 24.9744 25.7983 25.2415C25.6705 25.5057 25.4801 25.7187 25.2273 25.8807C24.9773 26.0398 24.6705 26.1193 24.3068 26.1193C23.9375 26.1193 23.6264 26.0398 23.3736 25.8807C23.1207 25.7187 22.929 25.5057 22.7983 25.2415C22.6676 24.9744 22.6023 24.6818 22.6023 24.3636ZM23.4716 23.9034V24.3636C23.4716 24.6278 23.5341 24.8651 23.6591 25.0753C23.7841 25.2827 24 25.3864 24.3068 25.3864C24.6051 25.3864 24.8153 25.2827 24.9375 25.0753C25.0625 24.8651 25.125 24.6278 25.125 24.3636V23.9034C25.125 23.6392 25.0653 23.4034 24.946 23.196C24.8267 22.9858 24.6136 22.8807 24.3068 22.8807C24.0085 22.8807 23.794 22.9858 23.6634 23.196C23.5355 23.4034 23.4716 23.6392 23.4716 23.9034ZM18.2557 19.3693V18.9091C18.2557 18.5909 18.321 18.2997 18.4517 18.0355C18.5852 17.7685 18.7784 17.5554 19.0312 17.3963C19.2869 17.2344 19.5966 17.1534 19.9602 17.1534C20.3295 17.1534 20.6392 17.2344 20.8892 17.3963C21.1392 17.5554 21.3281 17.7685 21.456 18.0355C21.5838 18.2997 21.6477 18.5909 21.6477 18.9091V19.3693C21.6477 19.6875 21.5824 19.9801 21.4517 20.2472C21.3239 20.5114 21.1335 20.7244 20.8807 20.8864C20.6307 21.0455 20.3239 21.125 19.9602 21.125C19.5909 21.125 19.2798 21.0455 19.027 20.8864C18.7741 20.7244 18.5824 20.5114 18.4517 20.2472C18.321 19.9801 18.2557 19.6875 18.2557 19.3693ZM19.125 18.9091V19.3693C19.125 19.6335 19.1875 19.8707 19.3125 20.081C19.4375 20.2884 19.6534 20.392 19.9602 20.392C20.2585 20.392 20.4688 20.2884 20.5909 20.081C20.7159 19.8707 20.7784 19.6335 20.7784 19.3693V18.9091C20.7784 18.6449 20.7188 18.4091 20.5994 18.2017C20.4801 17.9915 20.267 17.8864 19.9602 17.8864C19.6619 17.8864 19.4474 17.9915 19.3168 18.2017C19.1889 18.4091 19.125 18.6449 19.125 18.9091ZM18.5795 26L24.5795 17.2727H25.5511L19.5511 26H18.5795Z" fill="white" fill-opacity="0.6"/>
</svg>
