<svg width="44" height="44" viewBox="0 0 44 44" fill="none" xmlns="http://www.w3.org/2000/svg">
<rect width="44" height="44" fill="#313338"/>
<g clip-path="url(#clip0_129_1276)">
<path d="M23.52 15.333C23.7998 15.3331 24.0726 15.4212 24.2995 15.5849C24.5265 15.7486 24.6962 15.9795 24.7847 16.245L25.1467 17.333H27.3333C27.5101 17.333 27.6797 17.4032 27.8047 17.5283C27.9298 17.6533 28 17.8229 28 17.9997C28 18.1765 27.9298 18.3461 27.8047 18.4711C27.6797 18.5961 27.5101 18.6663 27.3333 18.6663L27.3313 18.7137L26.7533 26.809C26.7173 27.3134 26.4915 27.7854 26.1214 28.13C25.7513 28.4747 25.2644 28.6663 24.7587 28.6663H19.2413C18.7356 28.6663 18.2487 28.4747 17.8786 28.13C17.5086 27.7854 17.2827 27.3134 17.2467 26.809L16.6687 18.713C16.6675 18.6975 16.6668 18.6819 16.6667 18.6663C16.4899 18.6663 16.3203 18.5961 16.1953 18.4711C16.0702 18.3461 16 18.1765 16 17.9997C16 17.8229 16.0702 17.6533 16.1953 17.5283C16.3203 17.4032 16.4899 17.333 16.6667 17.333H18.8533L19.2153 16.245C19.3038 15.9794 19.4736 15.7484 19.7007 15.5847C19.9278 15.421 20.2007 15.3329 20.4807 15.333H23.52ZM25.998 18.6663H18.002L18.5767 26.7137C18.5886 26.8818 18.6639 27.0392 18.7872 27.1541C18.9105 27.269 19.0728 27.3329 19.2413 27.333H24.7587C24.9272 27.3329 25.0895 27.269 25.2128 27.1541C25.3362 27.0392 25.4114 26.8818 25.4233 26.7137L25.998 18.6663ZM20.6667 20.6663C20.83 20.6664 20.9876 20.7263 21.1096 20.8348C21.2316 20.9433 21.3096 21.0928 21.3287 21.255L21.3333 21.333V24.6663C21.3331 24.8363 21.2681 24.9997 21.1514 25.1233C21.0348 25.2468 20.8754 25.3212 20.7057 25.3311C20.5361 25.3411 20.3691 25.2859 20.2388 25.1768C20.1085 25.0678 20.0247 24.9131 20.0047 24.7443L20 24.6663V21.333C20 21.1562 20.0702 20.9866 20.1953 20.8616C20.3203 20.7366 20.4899 20.6663 20.6667 20.6663ZM23.3333 20.6663C23.5101 20.6663 23.6797 20.7366 23.8047 20.8616C23.9298 20.9866 24 21.1562 24 21.333V24.6663C24 24.8432 23.9298 25.0127 23.8047 25.1377C23.6797 25.2628 23.5101 25.333 23.3333 25.333C23.1565 25.333 22.987 25.2628 22.8619 25.1377C22.7369 25.0127 22.6667 24.8432 22.6667 24.6663V21.333C22.6667 21.1562 22.7369 20.9866 22.8619 20.8616C22.987 20.7366 23.1565 20.6663 23.3333 20.6663ZM23.52 16.6663H20.48L20.258 17.333H23.742L23.52 16.6663Z" fill="white"/>
</g>
<defs>
<clipPath id="clip0_129_1276">
<rect width="16" height="16" fill="white" transform="translate(14 14)"/>
</clipPath>
</defs>
</svg>
