<svg width="44" height="44" viewBox="0 0 44 44" fill="none" xmlns="http://www.w3.org/2000/svg">
<rect width="44" height="44" fill="#313338"/>
<path d="M21.8249 27.0909V16.1818H22.5238V27.0909H21.8249ZM24.1772 19.4545C24.1261 19.0227 23.9187 18.6875 23.555 18.4489C23.1914 18.2102 22.7454 18.0909 22.217 18.0909C21.8306 18.0909 21.4925 18.1534 21.2028 18.2784C20.9158 18.4034 20.6914 18.5753 20.5295 18.794C20.3704 19.0128 20.2908 19.2614 20.2908 19.5398C20.2908 19.7727 20.3462 19.973 20.457 20.1406C20.5707 20.3054 20.7156 20.4432 20.8917 20.554C21.0678 20.6619 21.2525 20.7514 21.4457 20.8224C21.6388 20.8906 21.8164 20.946 21.9783 20.9886L22.8647 21.2273C23.092 21.2869 23.3448 21.3693 23.6232 21.4744C23.9045 21.5795 24.1729 21.723 24.4286 21.9048C24.6871 22.0838 24.9002 22.3139 25.0678 22.5952C25.2354 22.8764 25.3192 23.2216 25.3192 23.6307C25.3192 24.1023 25.1957 24.5284 24.9485 24.9091C24.7042 25.2898 24.3462 25.5923 23.8746 25.8168C23.4059 26.0412 22.8363 26.1534 22.1658 26.1534C21.5408 26.1534 20.9996 26.0526 20.5423 25.8509C20.0877 25.6491 19.7298 25.3679 19.4684 25.0071C19.2099 24.6463 19.0636 24.2273 19.0295 23.75H20.1204C20.1488 24.0795 20.2596 24.3523 20.4528 24.5682C20.6488 24.7812 20.896 24.9403 21.1942 25.0455C21.4954 25.1477 21.8192 25.1989 22.1658 25.1989C22.5692 25.1989 22.9315 25.1335 23.2525 25.0028C23.5735 24.8693 23.8278 24.6847 24.0153 24.4489C24.2028 24.2102 24.2965 23.9318 24.2965 23.6136C24.2965 23.3239 24.2156 23.0881 24.0536 22.9062C23.8917 22.7244 23.6786 22.5767 23.4144 22.4631C23.1502 22.3494 22.8647 22.25 22.5579 22.1648L21.484 21.858C20.8022 21.6619 20.2624 21.3821 19.8647 21.0185C19.467 20.6548 19.2681 20.179 19.2681 19.5909C19.2681 19.1023 19.4002 18.6761 19.6644 18.3125C19.9315 17.946 20.2894 17.6619 20.7383 17.4602C21.19 17.2557 21.6942 17.1534 22.2511 17.1534C22.8136 17.1534 23.3136 17.2543 23.7511 17.456C24.1886 17.6548 24.5352 17.9276 24.7908 18.2741C25.0494 18.6207 25.1857 19.0142 25.1999 19.4545H24.1772Z" fill="white" fill-opacity="0.6"/>
</svg>
