<svg xmlns="http://www.w3.org/2000/svg" width="29" height="28" viewBox="0 0 29 28" fill="none">
  <path d="M23.25 6.125H20.2181L18.7273 3.88938C18.6475 3.76967 18.5393 3.6715 18.4124 3.60358C18.2856 3.53567 18.1439 3.50009 18 3.5H11C10.8561 3.50009 10.7144 3.53567 10.5876 3.60358C10.4607 3.6715 10.3525 3.76967 10.2727 3.88938L8.78078 6.125H5.75C5.05381 6.125 4.38613 6.40156 3.89384 6.89384C3.40156 7.38613 3.125 8.05381 3.125 8.75V21C3.125 21.6962 3.40156 22.3639 3.89384 22.8562C4.38613 23.3484 5.05381 23.625 5.75 23.625H23.25C23.9462 23.625 24.6139 23.3484 25.1062 22.8562C25.5984 22.3639 25.875 21.6962 25.875 21V8.75C25.875 8.05381 25.5984 7.38613 25.1062 6.89384C24.6139 6.40156 23.9462 6.125 23.25 6.125ZM24.125 21C24.125 21.2321 24.0328 21.4546 23.8687 21.6187C23.7046 21.7828 23.4821 21.875 23.25 21.875H5.75C5.51794 21.875 5.29538 21.7828 5.13128 21.6187C4.96719 21.4546 4.875 21.2321 4.875 21V8.75C4.875 8.51794 4.96719 8.29538 5.13128 8.13128C5.29538 7.96719 5.51794 7.875 5.75 7.875H9.25C9.39409 7.87509 9.53598 7.8396 9.66305 7.77167C9.79013 7.70375 9.89847 7.60549 9.97844 7.48563L11.4681 5.25H17.5308L19.0216 7.48563C19.1015 7.60549 19.2099 7.70375 19.3369 7.77167C19.464 7.8396 19.6059 7.87509 19.75 7.875H23.25C23.4821 7.875 23.7046 7.96719 23.8687 8.13128C24.0328 8.29538 24.125 8.51794 24.125 8.75V21ZM14.5 9.625C13.5482 9.625 12.6177 9.90725 11.8263 10.4361C11.0349 10.9649 10.4181 11.7165 10.0538 12.5958C9.68958 13.4752 9.59428 14.4428 9.77997 15.3764C9.96566 16.3099 10.424 17.1674 11.097 17.8405C11.7701 18.5135 12.6276 18.9718 13.5611 19.1575C14.4947 19.3432 15.4623 19.2479 16.3417 18.8837C17.221 18.5194 17.9726 17.9026 18.5014 17.1112C19.0303 16.3198 19.3125 15.3893 19.3125 14.4375C19.3111 13.1616 18.8036 11.9384 17.9014 11.0361C16.9991 10.1339 15.7759 9.62645 14.5 9.625ZM14.5 17.5C13.8943 17.5 13.3022 17.3204 12.7986 16.9839C12.2949 16.6474 11.9024 16.1691 11.6706 15.6095C11.4388 15.0499 11.3782 14.4341 11.4963 13.84C11.6145 13.246 11.9062 12.7003 12.3345 12.272C12.7628 11.8437 13.3085 11.552 13.9025 11.4338C14.4966 11.3157 15.1124 11.3763 15.672 11.6081C16.2316 11.8399 16.7099 12.2324 17.0464 12.7361C17.3829 13.2397 17.5625 13.8318 17.5625 14.4375C17.5625 15.2497 17.2398 16.0287 16.6655 16.603C16.0912 17.1773 15.3122 17.5 14.5 17.5Z" fill="white" fill-opacity="0.4"/>
</svg>