<svg width="16" height="16" viewBox="0 0 16 16" fill="none" xmlns="http://www.w3.org/2000/svg">
<g opacity="0.7">
<path d="M0.833252 8.26669C0.833252 8.54283 1.05711 8.76669 1.33325 8.76669C1.60939 8.76669 1.83325 8.54283 1.83325 8.26669H0.833252ZM2.85166 6.63131C3.10941 6.53221 3.23803 6.24293 3.13893 5.98518C3.03984 5.72743 2.75056 5.59882 2.49281 5.69792L2.85166 6.63131ZM10.2831 12.8C10.4582 12.5864 10.427 12.2714 10.2134 12.0963C9.99983 11.9212 9.68479 11.9525 9.50973 12.166L10.2831 12.8ZM8.12659 13.2467V13.7467V13.2467ZM6.31325 13.2467V12.7467C6.21467 12.7467 6.11829 12.7758 6.03622 12.8304L6.31325 13.2467ZM4.29992 14.5867L4.02285 14.1704L4.01626 14.1749L4.29992 14.5867ZM3.59991 13.2467H4.09991C4.09991 12.9705 3.87606 12.7467 3.59991 12.7467V13.2467ZM1.83325 10.98C1.83325 10.7038 1.60939 10.48 1.33325 10.48C1.05711 10.48 0.833252 10.7038 0.833252 10.98H1.83325ZM1.83325 8.26669C1.83325 7.43079 2.23618 6.86794 2.85166 6.63131L2.49281 5.69792C1.44779 6.09968 0.833252 7.06535 0.833252 8.26669H1.83325ZM9.50973 12.166C9.22166 12.5174 8.7561 12.7467 8.12659 12.7467V13.7467C9.01031 13.7467 9.77807 13.4161 10.2831 12.8L9.50973 12.166ZM8.12659 12.7467H6.31325V13.7467H8.12659V12.7467ZM6.03622 12.8304L4.02288 14.1704L4.57695 15.0029L6.59029 13.6629L6.03622 12.8304ZM4.01626 14.1749C4.02035 14.1721 4.03152 14.167 4.04634 14.1665C4.05922 14.166 4.06873 14.1692 4.07478 14.1724C4.08075 14.1757 4.08691 14.1808 4.09201 14.1891C4.098 14.1987 4.09991 14.2085 4.09991 14.2133H3.09991C3.09991 14.9605 3.93906 15.4424 4.58357 14.9984L4.01626 14.1749ZM4.09991 14.2133V13.2467H3.09991V14.2133H4.09991ZM3.59991 12.7467C3.03292 12.7467 2.60003 12.5597 2.31347 12.2731L1.60637 12.9802C2.10648 13.4803 2.80691 13.7467 3.59991 13.7467V12.7467ZM2.31347 12.2731C2.01948 11.9791 1.83325 11.5457 1.83325 10.98H0.833252C0.833252 11.7742 1.10036 12.4742 1.60637 12.9802L2.31347 12.2731Z" fill="white"/>
<path d="M14.6666 6.6133V7.56663C14.6666 8.4133 14.3866 9.12664 13.8866 9.61998C13.3933 10.12 12.6799 10.4 11.8333 10.4V11.6066C11.8333 12.06 11.3266 12.3333 10.9532 12.08L10.3066 11.6533C10.3666 11.4466 10.3932 11.22 10.3932 10.98V8.26666C10.3932 6.90666 9.48659 5.99998 8.12659 5.99998H3.59991C3.50658 5.99998 3.41992 6.00666 3.33325 6.01333V4.16665C3.33325 2.46665 4.46659 1.33331 6.16659 1.33331H11.8333C13.5333 1.33331 14.6666 2.46665 14.6666 4.16665" stroke="white" stroke-linecap="round" stroke-linejoin="round"/>
</g>
</svg>
