<svg width="37" height="36" viewBox="0 0 37 36" fill="none" xmlns="http://www.w3.org/2000/svg">
<rect x="0.5" width="36" height="36" rx="18" fill="url(#paint0_linear_2475_6471)"/>
<path fill-rule="evenodd" clip-rule="evenodd" d="M18.5624 7.77362L18.4478 7.71108C18.0014 7.46774 17.5606 7.19801 17.1216 6.92927C16.8314 6.7514 16.5412 6.57354 16.2566 6.40741C16.1586 6.34975 16.0718 6.29014 15.9969 6.23834C15.654 5.99989 15.4729 5.8748 14.9655 6.18166C14.7807 6.29209 14.6097 6.39373 14.4415 6.49145C14.2733 6.58918 14.1014 6.6869 13.9101 6.79245C13.5293 7.00452 13.1615 7.21658 12.7946 7.43451C12.3944 7.67003 12.0497 7.87819 11.6994 8.09025L11.5331 8.18798C10.9065 8.56813 10.1339 9.03624 9.54795 9.31476L9.41949 9.37633L9.49527 12.5436L7.28925 13.8708C7.16409 13.9179 7.0429 13.9761 6.92697 14.0447C6.8096 14.1131 6.70055 14.1864 6.60998 14.248L6.51756 14.3135L6.5 21.252L9.28456 23.1587L9.52023 26.4677L13.8944 29.0985C14.0302 29.1815 14.1809 29.2705 14.3324 29.3604C14.5321 29.4776 14.7317 29.5959 14.9341 29.7249C15.5283 30.1011 15.5949 30.0572 15.9867 29.7992C16.0607 29.7503 16.1503 29.6907 16.2529 29.632C16.5015 29.4884 16.764 29.3252 17.0292 29.161C17.4872 28.864 17.9598 28.5929 18.4451 28.3489L18.5707 28.2903L18.5791 23.7802L18.5624 7.77362ZM17.6549 27.6619C17.4322 27.8016 16.886 28.1271 16.3989 28.4105C15.9655 28.6626 15.5903 28.8766 15.5607 28.8835C15.5126 28.8942 15.1688 28.7144 14.7733 28.4926C14.3777 28.2707 13.9415 27.999 13.6874 27.8231C13.8611 27.7059 14.0996 27.5671 14.2825 27.4596L14.4323 27.3707C14.7409 27.1869 14.8583 27.226 14.9637 27.2622C15.1439 27.3228 15.3056 27.3775 15.6383 27.1498C15.7785 27.0588 15.8885 26.9239 15.9531 26.7639C16.0176 26.6039 16.0336 26.4266 15.9987 26.2566C15.9762 26.133 15.9327 26.0148 15.8703 25.9077C15.8069 25.8007 15.7251 25.7072 15.6291 25.6321C15.4972 25.5287 15.3382 25.4712 15.1741 25.4677C15.01 25.4642 14.8489 25.5148 14.7132 25.6126C14.6297 25.6588 14.5565 25.7235 14.4986 25.8022C14.4407 25.881 14.3995 25.9719 14.3777 26.0689C14.3581 26.1364 14.3327 26.2018 14.3019 26.2644C14.2271 26.41 13.911 26.5771 13.655 26.713C13.5626 26.7648 13.4702 26.8107 13.3999 26.8527C13.3075 26.9065 13.2354 26.9573 13.1652 27.0052C12.9332 27.1635 12.7641 27.2778 12.5026 27.1146C12.241 26.9514 11.9749 26.796 11.7031 26.6387C11.2605 26.3817 10.8141 26.1227 10.4305 25.8491L10.2198 23.1675C10.4946 23.0394 10.7611 22.8921 11.0174 22.7267C11.3261 22.5371 11.5996 22.369 11.7438 22.3641C11.8059 22.3641 11.8679 22.371 11.9286 22.3847C12.0247 22.4134 12.1255 22.4195 12.224 22.4026C12.3225 22.3857 12.4163 22.3462 12.4989 22.2869C12.8685 22.0573 12.9831 21.726 12.9397 21.4123C12.9018 21.1748 12.7847 20.9596 12.6098 20.8054C12.5241 20.7246 12.4235 20.6635 12.3144 20.6258C12.2053 20.5882 12.09 20.5748 11.9758 20.5865C11.6874 20.6246 11.4093 20.8435 11.2457 21.3449C11.1708 21.5755 11.1246 21.598 10.8289 21.7426C10.7096 21.8012 10.559 21.8755 10.3594 21.982C10.2078 22.0641 10.096 22.1355 10.0063 22.1931C9.81134 22.3192 9.7716 22.3456 9.44537 22.1149C9.28641 22.0026 9.06553 21.8579 8.82062 21.6996C8.31602 21.3712 7.7116 20.9784 7.43435 20.7223L7.41586 18.0759C7.65246 17.9674 7.88997 17.8355 8.12471 17.7055C8.38182 17.5551 8.64654 17.4197 8.91766 17.3C8.97185 17.2709 9.0313 17.2543 9.09202 17.2515C9.15274 17.2486 9.21335 17.2595 9.26977 17.2834C9.42319 17.342 9.57013 17.3967 9.8862 17.2482C10.0111 17.1925 10.1205 17.1039 10.2038 16.9908C10.2872 16.8777 10.3417 16.7439 10.3622 16.6022C10.3829 16.4608 10.3738 16.3163 10.3354 16.1791C10.2972 16.0404 10.2292 15.913 10.1367 15.8067C10.0446 15.7004 9.92829 15.6208 9.79887 15.5754C9.66945 15.5301 9.53121 15.5206 9.39731 15.5477C8.9306 15.6289 8.8428 15.8702 8.75778 16.1341C8.73213 16.2298 8.68667 16.3183 8.6247 16.3931L7.41494 16.9658L7.40847 14.8304L8.0018 14.506L9.96291 13.4154C10.3538 13.604 10.8224 13.9304 11.2826 14.2509C11.6089 14.4776 11.9296 14.7014 12.2207 14.8754L12.0774 17.3889C11.8519 17.5844 11.2762 17.9342 10.8076 18.2206C10.6015 18.3466 10.4167 18.46 10.2864 18.545C10.2134 18.5929 10.1459 18.6427 10.0941 18.675C10.0643 18.6978 10.0335 18.719 10.0017 18.7385L9.89545 18.719L9.74203 18.6926C9.27162 18.6154 8.96202 18.7903 8.79659 19.061C8.69398 19.2316 8.64752 19.4333 8.66443 19.6347C8.67924 19.8351 8.75218 20.0259 8.8733 20.1809C9.07385 20.4331 9.40101 20.5718 9.82706 20.4311C10.2078 20.3051 10.2642 20.1106 10.3354 19.8692C10.3508 19.8103 10.3706 19.7528 10.3945 19.6972C10.4093 19.664 10.4204 19.6347 10.4296 19.6083C10.4592 19.5907 10.4962 19.5672 10.5424 19.535C10.7919 19.363 11.51 18.8851 12.07 18.5743C12.3649 18.4101 12.595 18.2919 12.6246 18.3026C12.7465 18.3456 13.1476 18.6115 13.473 18.8274C13.6375 18.9359 13.7844 19.0336 13.8611 19.0805L14.8407 19.6855L14.9239 19.7392L14.9646 19.7695L14.9794 19.7812L14.9951 19.7949L15.0792 19.8799C15.0903 19.8907 15.0986 21.4827 15.1032 22.2107V22.4062C14.6411 22.6524 14.1264 22.9828 13.6643 23.2769L13.3242 23.4939C13.0247 23.6835 12.9887 23.6639 12.9462 23.6424C12.8325 23.5828 12.704 23.5144 12.3584 23.6326C12.2537 23.6696 12.1574 23.7292 12.0756 23.8076C11.951 23.9288 11.861 24.0845 11.8159 24.2571C11.7683 24.4348 11.7712 24.6235 11.8242 24.7995C11.8622 24.9246 11.9253 25.0396 12.009 25.1366C12.055 25.19 12.1071 25.237 12.1643 25.2764C12.3257 25.3831 12.5151 25.4328 12.705 25.4181C12.898 25.4057 13.0815 25.3252 13.2262 25.1894C13.2782 25.1399 13.3239 25.0834 13.3621 25.0213C13.4547 24.8724 13.5354 24.7154 13.6033 24.5522C13.6138 24.5155 13.6325 24.482 13.6578 24.4545C13.7767 24.368 13.9001 24.2887 14.0275 24.217C14.2345 24.0939 14.5339 23.9141 14.9572 23.6492L15.6965 23.1997L15.7104 23.1909C15.7929 23.1393 15.8687 23.0766 15.9359 23.0043L15.9793 22.9583L16.0459 22.8909L16.0015 19.2946L13.0654 17.4554L13.143 14.9145C13.4083 14.7122 13.8491 14.4923 14.2918 14.2714C14.886 13.9783 15.4821 13.6773 15.7492 13.3743L15.8056 13.2258L15.8509 10.6018C15.8792 10.5685 15.9101 10.5377 15.9433 10.51C16.0699 10.4005 16.1827 10.3028 16.2316 9.96953C16.2679 9.78973 16.2499 9.60244 16.1803 9.43399C16.1107 9.26554 15.9929 9.12439 15.8435 9.03038C15.7351 8.96386 15.6153 8.92095 15.491 8.90417C15.3667 8.88738 15.2405 8.89707 15.1198 8.93265C14.9597 8.97823 14.8171 9.07587 14.7123 9.21177C14.6075 9.34768 14.5458 9.51498 14.5358 9.69003C14.4859 10.2002 14.6088 10.2901 14.7594 10.3995C14.8343 10.4543 14.9267 10.5217 14.911 11.1813C14.911 11.3641 14.911 11.5586 14.911 11.755C14.911 12.1195 14.911 12.4918 14.8805 12.8368C14.7382 12.915 14.5506 13.0254 14.3454 13.1456C13.6707 13.5414 12.7743 14.0643 12.6458 14.0007C12.3416 13.8294 12.0464 13.6408 11.7614 13.4359C11.6385 13.3509 11.5266 13.2746 11.4601 13.2307C11.3677 13.1681 11.254 13.0987 11.1375 13.0264C10.8923 12.8798 10.6542 12.7203 10.4241 12.5485L10.3769 9.97832L12.2087 8.9522C12.229 9.39392 12.2521 9.9236 12.2318 10.2735C12.2282 10.3415 12.2115 10.408 12.1825 10.4689C12.1536 10.5297 12.1131 10.5837 12.0636 10.6272C11.8787 10.8227 11.7216 10.9917 11.9 11.54C11.9457 11.6744 12.026 11.7925 12.132 11.8811C12.2496 11.9818 12.3884 12.0512 12.5368 12.0833C12.6921 12.1187 12.8536 12.1092 13.0044 12.056C13.1449 12.0048 13.2691 11.913 13.363 11.7911C13.874 11.1305 13.4277 10.6888 13.1597 10.423L13.1421 8.37073C13.2622 8.30134 13.4369 8.19873 13.6384 8.07755C14.326 7.67198 15.3333 7.07683 15.4128 7.07585C15.4442 7.07585 15.8121 7.28206 16.2446 7.53419C16.7834 7.84594 17.3989 8.22316 17.6466 8.39125L17.6549 16.6696C17.5172 16.5924 17.3416 16.4879 17.1669 16.3765C16.9337 16.2417 16.7096 16.0902 16.496 15.923L16.4849 15.9054L16.3462 15.5145L16.3315 15.4813C16.2764 15.382 16.2032 15.2953 16.1161 15.2262C16.0306 15.1574 15.9328 15.1076 15.8287 15.0796C15.435 14.976 15.1365 15.1168 14.9526 15.3582C14.876 15.459 14.82 15.5754 14.7881 15.7002C14.7559 15.8232 14.7456 15.9514 14.7576 16.0784C14.7693 16.2423 14.8271 16.3988 14.9237 16.5276C15.0202 16.6565 15.1509 16.7519 15.2991 16.8016C15.618 16.9081 15.7612 16.8504 15.8869 16.8016C15.9479 16.7762 16.0006 16.7547 16.2279 16.8993C16.3647 16.9863 16.495 17.0664 16.6281 17.1485C16.9904 17.3723 17.3675 17.6068 17.654 17.8277L17.6632 21.9048L17.6549 27.6619Z" fill="white"/>
<path fill-rule="evenodd" clip-rule="evenodd" d="M30.4915 18.0674C30.3612 16.151 29.5497 15.0652 28.4231 14.2472C28.4231 14.2257 28.4324 14.2042 28.4361 14.1827C29.339 9.23682 24.9417 6.00306 21.2607 6.52297C20.1794 6.71842 19.4004 7.25787 19.0852 8.17161L19.0917 25.39L19.1 26.7845L19.1065 26.765V26.9829L19.0917 27.0367L19.1065 27.0513V27.882L19.1176 27.8683C19.4355 28.7791 20.2127 29.3196 21.2922 29.5111C24.8456 30.0134 29.0682 27.0142 28.5405 22.3536C29.0257 21.9787 29.4344 21.5041 29.7419 20.9581C30.2891 19.9662 30.5515 19.0007 30.4915 18.0674ZM26.7753 10.2766C27.4601 11.2803 27.6145 12.4618 27.437 13.6267C26.8077 13.2739 26.1256 12.9494 25.4343 12.5849C22.9122 11.2568 20.7358 9.57984 20.2543 8.23806C21.6045 6.69399 25.2061 7.98104 26.7753 10.2766ZM20.8051 10.6871C21.452 11.2969 22.3198 11.9223 23.3531 12.5537C24.475 13.2377 26.0415 13.7909 27.206 14.6157C26.9208 15.5223 26.4907 16.3705 25.9343 17.1233C24.2394 15.1307 22.1174 13.2671 20.8051 10.6871ZM20.1009 20.2965L20.1471 11.5608L20.1415 11.55L20.0658 11.4132C20.0632 11.4076 20.0601 11.4024 20.0565 11.3976L20.0658 11.4151C20.0941 11.4587 20.1194 11.5045 20.1415 11.552C21.4945 14.0479 23.6276 16.0943 25.2384 18.0019C23.6294 19.9144 21.4835 21.9627 20.1212 24.4645L20.1009 20.2965ZM20.2062 26.6595C21.3957 23.3485 23.9621 21.2034 25.9362 18.8707C26.6256 19.7877 27.1201 20.851 27.3862 21.9881C27.3289 22.0233 27.2716 22.0575 27.2125 22.0908C25.5905 23.0866 24.488 23.4755 23.1535 24.271C21.8846 25.0284 20.9678 25.7741 20.2183 26.6428L20.2062 26.6595ZM26.8049 25.7565C25.3086 27.9465 21.9622 29.2189 20.4853 27.9915C20.855 27.279 21.916 26.2666 23.2145 25.4564C24.9889 24.3482 26.4167 23.6974 27.5295 23.0397C27.571 23.9945 27.3659 24.9356 26.8049 25.7565ZM28.3233 21.2357C27.9943 20.0336 27.3871 18.9879 26.6395 17.996C27.2735 17.1536 27.8039 16.2663 28.1459 15.2763C29.997 16.9357 29.9166 19.5675 28.3233 21.2357Z" fill="white"/>
<defs>
<linearGradient id="paint0_linear_2475_6471" x1="-10.2661" y1="19.3869" x2="19.1125" y2="46.9653" gradientUnits="userSpaceOnUse">
<stop stop-color="#FF8473"/>
<stop offset="0.490859" stop-color="#B784FF"/>
<stop offset="1" stop-color="#2EB0FB"/>
</linearGradient>
</defs>
</svg>
