<svg width="22" height="23" viewBox="0 0 22 23" fill="none" xmlns="http://www.w3.org/2000/svg">
<path d="M11.172 22.5214C5.20137 22.5214 0.343994 17.664 0.343994 11.6934C0.343994 5.72273 5.20137 0.865356 11.172 0.865356C17.1426 0.865356 22 5.72273 22 11.6934C22 17.664 17.1426 22.5214 11.172 22.5214ZM11.172 2.41215C6.05441 2.41215 1.89079 6.57577 1.89079 11.6934C1.89079 16.8109 6.05441 20.9746 11.172 20.9746C16.2896 20.9746 20.4532 16.8109 20.4532 11.6934C20.4532 6.57577 16.2896 2.41215 11.172 2.41215Z" fill="#C4C4C4"/>
<path d="M15.0394 16.3343C14.8415 16.3343 14.6435 16.2588 14.4925 16.1076L6.75831 8.3734C6.45609 8.07119 6.45609 7.58182 6.75831 7.27982C7.0603 6.97778 7.54985 6.97761 7.85189 7.27982L15.5861 15.014C15.8883 15.3162 15.8883 15.8056 15.5861 16.1076C15.5144 16.1796 15.4292 16.2367 15.3354 16.2756C15.2416 16.3145 15.141 16.3344 15.0394 16.3343Z" fill="#C4C4C4"/>
<path d="M7.30513 16.3341C7.10718 16.3341 6.90944 16.2586 6.75844 16.1074C6.45623 15.8054 6.45623 15.3159 6.75844 15.0138L14.4926 7.27964C14.7949 6.97743 15.2842 6.97743 15.5862 7.27964C15.8883 7.58164 15.8884 8.07118 15.5862 8.37322L7.85203 16.1074C7.78032 16.1794 7.69508 16.2365 7.60122 16.2754C7.50736 16.3143 7.40673 16.3343 7.30513 16.3341Z" fill="#C4C4C4"/>
</svg>
