<svg width="16" height="16" viewBox="0 0 16 16" fill="none" xmlns="http://www.w3.org/2000/svg">
<g opacity="0.7">
<path fill-rule="evenodd" clip-rule="evenodd" d="M9.03892 4.72588C9.35913 4.48336 9.82013 4.69833 9.84018 5.09951L10.0193 8.68374C10.0275 8.84889 9.9536 9.00744 9.82178 9.10728L6.96098 11.274C6.64077 11.5165 6.17977 11.3015 6.15973 10.9003L5.98062 7.31611C5.97237 7.15096 6.0463 6.99241 6.17812 6.89257L9.03892 4.72588Z" stroke="white" stroke-linecap="round" stroke-linejoin="round"/>
<path d="M2.66659 4.00016C1.83325 5.1135 1.33325 6.50016 1.33325 8.00016C1.33325 11.6802 4.31992 14.6668 7.99992 14.6668C11.6799 14.6668 14.6666 11.6802 14.6666 8.00016C14.6666 4.32016 11.6799 1.3335 7.99992 1.3335C7.04659 1.3335 6.13325 1.5335 5.31325 1.90016" stroke="white" stroke-linecap="round" stroke-linejoin="round"/>
</g>
</svg>
