<svg width="91" height="28" viewBox="0 0 91 28" fill="none" xmlns="http://www.w3.org/2000/svg">
<rect width="1" height="1" fill="#666878" fill-opacity="0.5"/>
<rect y="27" width="1" height="1" fill="#666878" fill-opacity="0.5"/>
<rect x="9" width="1" height="1" fill="#666878" fill-opacity="0.5"/>
<rect x="9" y="9" width="1" height="1" fill="#666878" fill-opacity="0.5"/>
<rect x="9" y="18" width="1" height="1" fill="#666878" fill-opacity="0.5"/>
<rect x="9" y="27" width="1" height="1" fill="#666878"/>
<rect x="18" width="1" height="1" fill="#666878" fill-opacity="0.5"/>
<rect x="18" y="9" width="1" height="1" fill="#666878" fill-opacity="0.5"/>
<rect x="18" y="18" width="1" height="1" fill="url(#paint0_linear_228_24355)"/>
<rect x="18" y="27" width="1" height="1" fill="#666878"/>
<rect x="27" width="1" height="1" fill="#666878"/>
<rect x="27" y="9" width="1" height="1" fill="url(#paint1_linear_228_24355)"/>
<rect x="27" y="18" width="1" height="1" fill="#666878"/>
<rect x="27" y="27" width="1" height="1" fill="#666878"/>
<rect x="36" width="1" height="1" fill="#666878" fill-opacity="0.5"/>
<rect x="36" y="9" width="1" height="1" fill="#666878" fill-opacity="0.5"/>
<rect x="36" y="18" width="1" height="1" fill="#666878"/>
<rect x="36" y="27" width="1" height="1" fill="#666878" fill-opacity="0.5"/>
<rect x="45" width="1" height="1" fill="#666878" fill-opacity="0.5"/>
<rect x="45" y="9" width="1" height="1" fill="#666878" fill-opacity="0.5"/>
<rect x="45" y="18" width="1" height="1" fill="#666878"/>
<rect x="45" y="27" width="1" height="1" fill="#666878" fill-opacity="0.5"/>
<rect x="54" width="1" height="1" fill="#666878" fill-opacity="0.5"/>
<rect x="54" y="9" width="1" height="1" fill="#666878" fill-opacity="0.5"/>
<rect x="54" y="18" width="1" height="1" fill="#666878" fill-opacity="0.5"/>
<rect x="54" y="27" width="1" height="1" fill="#666878" fill-opacity="0.5"/>
<rect x="63" width="1" height="1" fill="url(#paint2_linear_228_24355)"/>
<rect x="63" y="9" width="1" height="1" fill="#666878" fill-opacity="0.5"/>
<rect x="63" y="18" width="1" height="1" fill="#666878"/>
<rect x="63" y="27" width="1" height="1" fill="#666878"/>
<rect x="72" width="1" height="1" fill="url(#paint3_linear_228_24355)"/>
<rect x="72" y="9" width="1" height="1" fill="#666878"/>
<rect x="72" y="18" width="1" height="1" fill="#666878"/>
<rect x="72" y="27" width="1" height="1" fill="url(#paint4_linear_228_24355)"/>
<rect x="81" width="1" height="1" fill="#666878"/>
<rect x="81" y="9" width="1" height="1" fill="#666878"/>
<rect x="81" y="18" width="1" height="1" fill="url(#paint5_linear_228_24355)"/>
<rect x="81" y="27" width="1" height="1" fill="#666878"/>
<rect x="90" y="9" width="1" height="1" fill="#666878"/>
<rect x="90" y="18" width="1" height="1" fill="url(#paint6_linear_228_24355)"/>
<defs>
<linearGradient id="paint0_linear_228_24355" x1="17.9628" y1="19" x2="18.9628" y2="19.0743" gradientUnits="userSpaceOnUse">
<stop stop-color="#FF8473"/>
<stop offset="0.490859" stop-color="#B784FF"/>
<stop offset="1" stop-color="#2EB0FB"/>
</linearGradient>
<linearGradient id="paint1_linear_228_24355" x1="26.9628" y1="10" x2="27.9628" y2="10.0743" gradientUnits="userSpaceOnUse">
<stop stop-color="#FF8473"/>
<stop offset="0.490859" stop-color="#B784FF"/>
<stop offset="1" stop-color="#2EB0FB"/>
</linearGradient>
<linearGradient id="paint2_linear_228_24355" x1="62.9628" y1="1" x2="63.9628" y2="1.07431" gradientUnits="userSpaceOnUse">
<stop stop-color="#FF8473"/>
<stop offset="0.490859" stop-color="#B784FF"/>
<stop offset="1" stop-color="#2EB0FB"/>
</linearGradient>
<linearGradient id="paint3_linear_228_24355" x1="71.9628" y1="1" x2="72.9628" y2="1.07431" gradientUnits="userSpaceOnUse">
<stop stop-color="#FF8473"/>
<stop offset="0.490859" stop-color="#B784FF"/>
<stop offset="1" stop-color="#2EB0FB"/>
</linearGradient>
<linearGradient id="paint4_linear_228_24355" x1="71.9628" y1="28" x2="72.9628" y2="28.0743" gradientUnits="userSpaceOnUse">
<stop stop-color="#FF8473"/>
<stop offset="0.490859" stop-color="#B784FF"/>
<stop offset="1" stop-color="#2EB0FB"/>
</linearGradient>
<linearGradient id="paint5_linear_228_24355" x1="80.9628" y1="19" x2="81.9628" y2="19.0743" gradientUnits="userSpaceOnUse">
<stop stop-color="#FF8473"/>
<stop offset="0.490859" stop-color="#B784FF"/>
<stop offset="1" stop-color="#2EB0FB"/>
</linearGradient>
<linearGradient id="paint6_linear_228_24355" x1="89.9628" y1="19" x2="90.9628" y2="19.0743" gradientUnits="userSpaceOnUse">
<stop stop-color="#FF8473"/>
<stop offset="0.490859" stop-color="#B784FF"/>
<stop offset="1" stop-color="#2EB0FB"/>
</linearGradient>
</defs>
</svg>
