<svg width="12" height="11" viewBox="0 0 12 11" fill="none" xmlns="http://www.w3.org/2000/svg">
<path d="M11.1398 8.66905V6.87285C11.1398 6.75375 11.0925 6.63953 11.0082 6.55532C10.924 6.47111 10.8098 6.4238 10.6907 6.4238C10.5716 6.4238 10.4574 6.47111 10.3732 6.55532C10.289 6.63953 10.2417 6.75375 10.2417 6.87285V8.66905C10.2417 8.78815 10.1944 8.90237 10.1101 8.98658C10.0259 9.07079 9.91171 9.1181 9.79262 9.1181H1.7097C1.59061 9.1181 1.47639 9.07079 1.39217 8.98658C1.30796 8.90237 1.26065 8.78815 1.26065 8.66905V6.87285C1.26065 6.75375 1.21334 6.63953 1.12913 6.55532C1.04491 6.47111 0.930695 6.4238 0.8116 6.4238C0.692504 6.4238 0.578286 6.47111 0.494073 6.55532C0.40986 6.63953 0.362549 6.75375 0.362549 6.87285V8.66905C0.362549 9.02634 0.504481 9.36899 0.757121 9.62163C1.00976 9.87427 1.35241 10.0162 1.7097 10.0162H9.79262C10.1499 10.0162 10.4926 9.87427 10.7452 9.62163C10.9978 9.36899 11.1398 9.02634 11.1398 8.66905ZM8.27483 6.32501L6.02957 8.12121C5.95029 8.18386 5.8522 8.21793 5.75116 8.21793C5.65012 8.21793 5.55203 8.18386 5.47275 8.12121L3.22749 6.32501C3.14568 6.24778 3.09584 6.14267 3.08782 6.03045C3.07981 5.91824 3.1142 5.8071 3.18421 5.71904C3.25421 5.63097 3.35472 5.57239 3.46585 5.55488C3.57697 5.53737 3.69063 5.56221 3.78432 5.62449L5.30211 6.83692V0.586136C5.30211 0.46704 5.34942 0.352822 5.43363 0.268609C5.51785 0.184396 5.63206 0.137085 5.75116 0.137085C5.87026 0.137085 5.98447 0.184396 6.06869 0.268609C6.1529 0.352822 6.20021 0.46704 6.20021 0.586136V6.83692L7.718 5.62449C7.76322 5.5818 7.81681 5.54898 7.87538 5.52809C7.93395 5.5072 7.99621 5.4987 8.05824 5.50313C8.12026 5.50756 8.18069 5.52482 8.23569 5.55383C8.2907 5.58283 8.33908 5.62294 8.37777 5.67162C8.41646 5.7203 8.44462 5.77648 8.46047 5.83661C8.47631 5.89674 8.4795 5.9595 8.46982 6.02092C8.46014 6.08235 8.43781 6.14109 8.40425 6.19344C8.37068 6.24578 8.32661 6.29058 8.27483 6.32501Z" fill="#C4C4C4"/>
</svg>
