<svg width="17" height="17" viewBox="0 0 17 17" fill="none" xmlns="http://www.w3.org/2000/svg">
<path d="M12.6906 8.21826C12.3219 8.21826 12.0239 8.51698 12.0239 8.88489V14.2183C12.0239 14.5856 11.7252 14.8849 11.3573 14.8849H2.02393C1.65589 14.8849 1.3573 14.5856 1.3573 14.2183V4.88489C1.3573 4.51758 1.65589 4.21826 2.02393 4.21826H7.3573C7.72596 4.21826 8.02393 3.91958 8.02393 3.55164C8.02393 3.18361 7.72596 2.88489 7.3573 2.88489H2.02393C0.92127 2.88489 0.0239258 3.78223 0.0239258 4.88489V14.2183C0.0239258 15.321 0.92127 16.2183 2.02393 16.2183H11.3573C12.46 16.2183 13.3573 15.321 13.3573 14.2183V8.88489C13.3573 8.51626 13.0592 8.21826 12.6906 8.21826Z" fill="#7D7F7E"/>
<path d="M5.80312 10.4395C5.83415 10.4705 5.87097 10.495 5.91147 10.5117C5.95198 10.5284 5.99537 10.5369 6.03919 10.5368C6.06044 10.5368 6.08253 10.5349 6.1045 10.5302L5.80312 10.4395ZM13.1994 4.69282L8.3137 9.57852L6.25115 9.99101L6.66338 7.92906L11.5498 3.04331L13.1994 4.69282ZM14.6131 3.27843L12.9636 1.62887L13.5326 1.05983L13.5328 1.05966C13.9868 0.60519 14.7275 0.604994 15.1822 1.05979L15.1823 1.0599C15.4031 1.28057 15.5238 1.57201 15.5238 1.88484C15.5238 2.19776 15.403 2.489 15.1826 2.70888L15.1822 2.7093L14.6131 3.27843Z" stroke="#7D7F7E"/>
</svg>
