<svg xmlns="http://www.w3.org/2000/svg" width="32" height="32" viewBox="0 0 32 32" fill="none">
  <path d="M24.0665 28.3866C23.9432 28.5102 23.7966 28.6083 23.6353 28.6752C23.474 28.7421 23.3011 28.7765 23.1265 28.7765C22.9519 28.7765 22.779 28.7421 22.6177 28.6752C22.4564 28.6083 22.3099 28.5102 22.1865 28.3866L19.3598 25.5599C19.2364 25.4365 19.1385 25.2899 19.0717 25.1286C19.0049 24.9674 18.9705 24.7945 18.9705 24.6199C18.9705 24.4453 19.0049 24.2725 19.0717 24.1112C19.1385 23.9499 19.2364 23.8034 19.3598 23.6799C19.6091 23.4306 19.9473 23.2906 20.2998 23.2906C20.4744 23.2906 20.6473 23.3249 20.8086 23.3918C20.9698 23.4586 21.1164 23.5565 21.2398 23.6799L23.1198 25.5599L27.8398 20.8399C27.9633 20.7165 28.1098 20.6186 28.2711 20.5517C28.4324 20.4849 28.6053 20.4506 28.7798 20.4506C28.9544 20.4506 29.1273 20.4849 29.2886 20.5517C29.4498 20.6186 29.5964 20.7165 29.7198 20.8399C29.8433 20.9634 29.9412 21.1099 30.008 21.2712C30.0748 21.4325 30.1092 21.6053 30.1092 21.7799C30.1092 21.9545 30.0748 22.1274 30.008 22.2886C29.9412 22.4499 29.8433 22.5965 29.7198 22.7199L24.0665 28.3866ZM16.1065 26.6666H5.33317C3.8665 26.6666 2.6665 25.4666 2.6665 23.9999V7.99992C2.6665 6.53325 3.8665 5.33325 5.33317 5.33325H26.6665C28.1332 5.33325 29.3332 6.53325 29.3332 7.99992V16.9066C27.9112 16.2301 26.3411 15.9247 24.7692 16.0188C23.1973 16.1129 21.6749 16.6034 20.3438 17.4447C19.0126 18.286 17.9162 19.4506 17.1566 20.8299C16.397 22.2093 15.9991 23.7586 15.9998 25.3333C15.9998 25.7866 16.0398 26.2266 16.1065 26.6666ZM15.2932 16.8933C15.7198 17.1599 16.2798 17.1599 16.7065 16.8933L26.1332 10.9999C26.2669 10.9249 26.3839 10.8235 26.4773 10.7019C26.5707 10.5802 26.6384 10.441 26.6764 10.2924C26.7144 10.1439 26.7218 9.98917 26.6983 9.83766C26.6748 9.68616 26.6207 9.541 26.5395 9.41099C26.4582 9.28097 26.3514 9.16879 26.2255 9.08125C26.0997 8.9937 25.9573 8.9326 25.8072 8.90165C25.657 8.8707 25.5021 8.87054 25.3519 8.90118C25.2017 8.93182 25.0592 8.99263 24.9332 9.07992L15.9998 14.6666L7.0665 9.07992C6.94046 8.99263 6.79801 8.93182 6.64778 8.90118C6.49755 8.87054 6.34266 8.8707 6.1925 8.90165C6.04233 8.9326 5.90001 8.9937 5.77414 9.08125C5.64827 9.16879 5.54147 9.28097 5.46021 9.41099C5.37895 9.541 5.32492 9.68616 5.30138 9.83766C5.27784 9.98917 5.28529 10.1439 5.32327 10.2924C5.36125 10.441 5.42898 10.5802 5.52236 10.7019C5.61573 10.8235 5.73281 10.9249 5.8665 10.9999L15.2932 16.8933Z" fill="url(#paint0_linear_258_28222)"/>
  <defs>
    <linearGradient id="paint0_linear_258_28222" x1="1.64686" y1="28.7765" x2="29.0339" y2="31.1589" gradientUnits="userSpaceOnUse">
      <stop stop-color="#FF8473"/>
      <stop offset="0.490859" stop-color="#B784FF"/>
      <stop offset="1" stop-color="#2EB0FB"/>
    </linearGradient>
  </defs>
</svg>