<svg width="14" height="18" viewBox="0 0 14 18" fill="none" xmlns="http://www.w3.org/2000/svg">
<path d="M4.34375 0.25C3.80503 0.25 3.28837 0.464006 2.90744 0.844939C2.52651 1.22587 2.3125 1.74253 2.3125 2.28125V13.5312C2.3125 13.798 2.36504 14.0621 2.46712 14.3086C2.5692 14.555 2.71882 14.7789 2.90744 14.9676C3.09606 15.1562 3.31998 15.3058 3.56642 15.4079C3.81287 15.51 4.077 15.5625 4.34375 15.5625H11.8438C12.1105 15.5625 12.3746 15.51 12.6211 15.4079C12.8675 15.3058 13.0914 15.1562 13.2801 14.9676C13.4687 14.7789 13.6183 14.555 13.7204 14.3086C13.8225 14.0621 13.875 13.798 13.875 13.5312V2.28125C13.875 1.74253 13.661 1.22587 13.2801 0.844939C12.8991 0.464006 12.3825 0.25 11.8438 0.25H4.34375ZM3.5625 2.28125C3.5625 1.85 3.9125 1.5 4.34375 1.5H11.8438C12.275 1.5 12.625 1.85 12.625 2.28125V13.5312C12.625 13.9625 12.275 14.3125 11.8438 14.3125H4.34375C3.9125 14.3125 3.5625 13.9625 3.5625 13.5312V2.28125ZM1.375 2.59313C0.64125 2.89937 0.125 3.62375 0.125 4.46812V13.6875C0.125 14.221 0.23008 14.7493 0.434239 15.2422C0.638399 15.735 0.937641 16.1829 1.31488 16.5601C2.07675 17.322 3.11006 17.75 4.1875 17.75H9.65625C10.0574 17.75 10.4495 17.6314 10.7833 17.4089C11.1171 17.1865 11.3775 16.8702 11.5319 16.5H4.1875C3.44158 16.5 2.72621 16.2037 2.19876 15.6762C1.67132 15.1488 1.375 14.4334 1.375 13.6875V2.59313Z" fill="#7D7F7E"/>
</svg>
