<svg width="20" height="20" viewBox="0 0 20 20" fill="none" xmlns="http://www.w3.org/2000/svg">
<path d="M8.94169 4.22783C9.29299 4.18708 9.64636 4.16676 10 4.16699C13.8867 4.16699 17 6.58616 18.3334 10.0003C18.0106 10.8308 17.5745 11.6127 17.0375 12.3237M5.43335 5.43283C3.73335 6.47033 2.41669 8.07783 1.66669 10.0003C3.00002 13.4145 6.11335 15.8337 10 15.8337C11.6101 15.8422 13.191 15.4037 14.5667 14.567M8.23335 8.23366C8.00119 8.46583 7.81702 8.74145 7.69138 9.04479C7.56573 9.34813 7.50106 9.67325 7.50106 10.0016C7.50106 10.3299 7.56573 10.655 7.69138 10.9584C7.81702 11.2617 8.00119 11.5373 8.23335 11.7695C8.46552 12.0017 8.74114 12.1858 9.04448 12.3115C9.34782 12.4371 9.67294 12.5018 10.0013 12.5018C10.3296 12.5018 10.6547 12.4371 10.9581 12.3115C11.2614 12.1858 11.537 12.0017 11.7692 11.7695" stroke="white" stroke-width="1.5" stroke-linecap="round" stroke-linejoin="round"/>
<path d="M3.33337 3.3335L16.6667 16.6668" stroke="white" stroke-width="1.5" stroke-linecap="round"/>
</svg>
