<svg xmlns="http://www.w3.org/2000/svg" width="16" height="16" viewBox="0 0 16 16" fill="none">
  <path d="M13.2663 9H2.73301C1.73301 9 1.33301 9.42667 1.33301 10.4867V13.18C1.33301 14.24 1.73301 14.6667 2.73301 14.6667H13.2663C14.2663 14.6667 14.6663 14.24 14.6663 13.18V10.4867C14.6663 9.42667 14.2663 9 13.2663 9Z" stroke="white" stroke-opacity="0.7" stroke-linecap="round" stroke-linejoin="round"/>
  <path d="M13.2663 1.33301H2.73301C1.73301 1.33301 1.33301 1.75967 1.33301 2.81967V5.51301C1.33301 6.57301 1.73301 6.99967 2.73301 6.99967H13.2663C14.2663 6.99967 14.6663 6.57301 14.6663 5.51301V2.81967C14.6663 1.75967 14.2663 1.33301 13.2663 1.33301Z" stroke="white" stroke-opacity="0.7" stroke-linecap="round" stroke-linejoin="round"/>
</svg>