<svg width="48" height="48" viewBox="0 0 48 48" fill="none" xmlns="http://www.w3.org/2000/svg">
<rect width="48" height="48" rx="12" fill="url(#paint0_linear_228_9123)"/>
<path fill-rule="evenodd" clip-rule="evenodd" d="M24.0936 8.66043L23.9217 8.56661C23.2522 8.20161 22.5909 7.79702 21.9324 7.3939C21.4971 7.12711 21.0619 6.86031 20.6349 6.61111C20.4879 6.52462 20.3576 6.4352 20.2453 6.35751C19.731 5.99983 19.4593 5.8122 18.6983 6.27249C18.421 6.43814 18.1645 6.59059 17.9122 6.73718C17.6599 6.88377 17.4021 7.03036 17.1151 7.18867C16.544 7.50677 15.9923 7.82487 15.4419 8.15176C14.8417 8.50505 14.3246 8.81728 13.7992 9.13538L13.5496 9.28197C12.6098 9.8522 11.4508 10.5544 10.5719 10.9721L10.3792 11.0645L10.4929 15.8155L7.18388 17.8061C6.99613 17.8768 6.81435 17.9641 6.64046 18.0671C6.4644 18.1697 6.30082 18.2796 6.16497 18.372L6.02634 18.4702L6 28.878L10.1768 31.738L10.5303 36.7015L17.0916 40.6477C17.2954 40.7723 17.5213 40.9057 17.7487 41.0406C18.0481 41.2165 18.3475 41.3938 18.6511 41.5873C19.5425 42.1517 19.6423 42.0857 20.2301 41.6987C20.341 41.6254 20.4755 41.536 20.6293 41.4481C21.0022 41.2326 21.3959 40.9878 21.7938 40.7415C22.4808 40.2959 23.1897 39.8893 23.9176 39.5234L24.1061 39.4354L24.1186 32.6703L24.0936 8.66043ZM22.7323 38.4928C22.3982 38.7024 21.5789 39.1906 20.8484 39.6157C20.1982 39.9939 19.6354 40.3149 19.591 40.3252C19.5189 40.3413 19.0032 40.0716 18.4099 39.7388C17.8166 39.4061 17.1623 38.9986 16.781 38.7347C17.0417 38.5588 17.3993 38.3506 17.6738 38.1894L17.8984 38.056C18.3614 37.7804 18.5375 37.839 18.6955 37.8933C18.9658 37.9842 19.2084 38.0663 19.7075 37.7247C19.9178 37.5881 20.0828 37.3859 20.1796 37.1458C20.2765 36.9058 20.3004 36.6399 20.2481 36.3849C20.2143 36.1996 20.149 36.0223 20.0554 35.8616C19.9604 35.701 19.8376 35.5608 19.6936 35.4482C19.4959 35.293 19.2573 35.2068 19.0111 35.2015C18.7649 35.1963 18.5233 35.2722 18.3198 35.4188C18.1945 35.4882 18.0847 35.5853 17.9979 35.7034C17.9111 35.8215 17.8493 35.9579 17.8166 36.1034C17.7872 36.2046 17.7491 36.3027 17.7029 36.3966C17.5906 36.615 17.1165 36.8657 16.7325 37.0694C16.5939 37.1471 16.4553 37.216 16.3499 37.2791C16.2113 37.3597 16.1032 37.4359 15.9978 37.5077C15.6498 37.7452 15.3962 37.9167 15.0038 37.6719C14.6115 37.4271 14.2123 37.194 13.8047 36.958C13.1407 36.5725 12.4711 36.184 11.8958 35.7736L11.5797 31.7512C11.9919 31.5591 12.3916 31.3382 12.7761 31.0901C13.2391 30.8057 13.6495 30.5536 13.8657 30.5462C13.9589 30.5462 14.0518 30.5565 14.143 30.577C14.287 30.62 14.4382 30.6292 14.586 30.6039C14.7337 30.5786 14.8745 30.5194 14.9983 30.4304C15.5528 30.0859 15.7247 29.589 15.6596 29.1184C15.6027 28.7623 15.4271 28.4393 15.1647 28.2081C15.0361 28.087 14.8853 27.9953 14.7216 27.9387C14.558 27.8822 14.385 27.8621 14.2137 27.8798C13.7812 27.9369 13.3639 28.2653 13.1185 29.0173C13.0062 29.3632 12.9369 29.397 12.4933 29.6139C12.3145 29.7019 12.0885 29.8133 11.7891 29.9731C11.5617 30.0962 11.394 30.2032 11.2595 30.2897C10.967 30.4788 10.9074 30.5184 10.4181 30.1724C10.1796 30.0038 9.84829 29.7869 9.48093 29.5494C8.72403 29.0569 7.8174 28.4676 7.40152 28.0835L7.3738 24.1139C7.72868 23.9512 8.08496 23.7533 8.43707 23.5583C8.82273 23.3327 9.2198 23.1296 9.62649 22.95C9.70778 22.9063 9.79695 22.8815 9.88803 22.8772C9.97912 22.8729 10.07 22.8892 10.1547 22.925C10.3848 23.013 10.6052 23.0951 11.0793 22.8723C11.2667 22.7888 11.4307 22.6559 11.5557 22.4862C11.6807 22.3166 11.7625 22.1159 11.7932 21.9033C11.8244 21.6912 11.8107 21.4744 11.753 21.2686C11.6958 21.0606 11.5937 20.8694 11.455 20.7101C11.3169 20.5506 11.1424 20.4312 10.9483 20.3632C10.7542 20.2952 10.5468 20.2809 10.346 20.3216C9.6459 20.4433 9.5142 20.8054 9.38666 21.2011C9.3482 21.3447 9.28001 21.4774 9.18704 21.5896L7.37241 22.4486L7.36271 19.2456L8.25269 18.759L11.1944 17.123C11.7808 17.406 12.4836 17.8956 13.174 18.3764C13.6633 18.7165 14.1444 19.0521 14.581 19.3131L14.3662 23.0834C14.0279 23.3765 13.1643 23.9013 12.4614 24.3308C12.1523 24.5199 11.875 24.69 11.6796 24.8175C11.57 24.8893 11.4688 24.9641 11.3912 25.0125C11.3465 25.0466 11.3003 25.0784 11.2526 25.1078L11.0932 25.0784L10.863 25.0389C10.1574 24.9231 9.69303 25.1854 9.44489 25.5915C9.29097 25.8474 9.22128 26.1499 9.24665 26.452C9.26887 26.7527 9.37827 27.0389 9.55995 27.2714C9.86077 27.6496 10.3515 27.8578 10.9906 27.6467C11.5617 27.4576 11.6463 27.1659 11.753 26.8038C11.7763 26.7155 11.8059 26.6292 11.8418 26.5458C11.8639 26.496 11.8806 26.452 11.8944 26.4124C11.9388 26.386 11.9942 26.3508 12.0636 26.3025C12.4379 26.0445 13.515 25.3276 14.3551 24.8615C14.7973 24.6152 15.1425 24.4378 15.1868 24.454C15.3698 24.5185 15.9715 24.9172 16.4594 25.2412C16.7062 25.4039 16.9266 25.5505 17.0417 25.6208L18.5111 26.5282L18.6359 26.6088L18.6969 26.6543L18.7191 26.6719L18.7426 26.6924L18.8688 26.8199C18.8854 26.836 18.8979 29.224 18.9048 30.3161V30.6093C18.2117 30.9787 17.4395 31.4741 16.7464 31.9154L16.2362 32.2408C15.7871 32.5252 15.733 32.4959 15.6693 32.4636C15.4987 32.3742 15.3061 32.2716 14.7876 32.449C14.6306 32.5045 14.4861 32.5938 14.3634 32.7113C14.1764 32.8931 14.0415 33.1268 13.9738 33.3857C13.9025 33.6523 13.9068 33.9352 13.9863 34.1992C14.0434 34.3869 14.1379 34.5594 14.2636 34.705C14.3324 34.785 14.4107 34.8555 14.4965 34.9146C14.7386 35.0747 15.0226 35.1491 15.3074 35.1271C15.597 35.1085 15.8723 34.9878 16.0893 34.7841C16.1673 34.7098 16.2358 34.6251 16.2931 34.532C16.432 34.3085 16.5531 34.0732 16.6549 33.8284C16.6708 33.7733 16.6988 33.7231 16.7367 33.6818C16.915 33.552 17.1001 33.4331 17.2912 33.3256C17.6017 33.1409 18.0509 32.8711 18.6858 32.4739L19.7948 31.7996L19.8156 31.7864C19.9394 31.709 20.0531 31.6149 20.1539 31.5064L20.219 31.4375L20.3188 31.3363L20.2523 25.9418L15.8481 23.183L15.9645 19.3717C16.3624 19.0683 17.0236 18.7384 17.6877 18.4072C18.579 17.9674 19.4732 17.5159 19.8738 17.0615L19.9584 16.8386L20.0263 12.9027C20.0687 12.8527 20.1151 12.8066 20.1649 12.7649C20.3549 12.6007 20.524 12.4542 20.5975 11.9543C20.6518 11.6846 20.6249 11.4037 20.5204 11.151C20.416 10.8983 20.2393 10.6866 20.0152 10.5456C19.8527 10.4458 19.6729 10.3814 19.4865 10.3562C19.3001 10.3311 19.1108 10.3456 18.9298 10.399C18.6895 10.4673 18.4757 10.6138 18.3185 10.8177C18.1613 11.0215 18.0686 11.2725 18.0536 11.535C17.9788 12.3002 18.1632 12.4351 18.3891 12.5993C18.5014 12.6814 18.64 12.7825 18.6165 13.772C18.6165 14.0461 18.6165 14.3378 18.6165 14.6325C18.6165 15.1793 18.6165 15.7378 18.5707 16.2552C18.3572 16.3725 18.0758 16.5381 17.7681 16.7184C16.7561 17.3121 15.4114 18.0964 15.2187 18.0011C14.7624 17.744 14.3196 17.4612 13.8921 17.1538C13.7077 17.0263 13.5399 16.9119 13.4401 16.846C13.3015 16.7522 13.131 16.6481 12.9563 16.5396C12.5885 16.3197 12.2313 16.0805 11.8861 15.8228L11.8154 11.9675L14.563 10.4283C14.5935 11.0909 14.6282 11.8854 14.5977 12.4102C14.5924 12.5122 14.5672 12.612 14.5238 12.7033C14.4804 12.7946 14.4197 12.8755 14.3454 12.9408C14.0681 13.234 13.8324 13.4876 14.1 14.31C14.1685 14.5115 14.289 14.6888 14.4479 14.8216C14.6244 14.9727 14.8327 15.0768 15.0551 15.125C15.2882 15.178 15.5305 15.1638 15.7566 15.084C15.9674 15.0071 16.1537 14.8696 16.2945 14.6867C17.0611 13.6958 16.3915 13.0332 15.9895 12.6345L15.9631 9.55609C16.1434 9.45201 16.4054 9.29809 16.7076 9.11632C17.739 8.50798 19.25 7.61525 19.3692 7.61378C19.4164 7.61378 19.9681 7.92309 20.6169 8.30129C21.4251 8.76891 22.3483 9.33474 22.7198 9.58687L22.7323 22.0045C22.5258 21.8887 22.2624 21.7318 22.0004 21.5647C21.6506 21.3625 21.3143 21.1353 20.9939 20.8845L20.9773 20.8581L20.7694 20.2718L20.7472 20.2219C20.6645 20.073 20.5547 19.943 20.4242 19.8393C20.2959 19.7361 20.1493 19.6614 19.993 19.6194C19.4025 19.4641 18.9547 19.6752 18.6789 20.0372C18.5641 20.1884 18.48 20.3631 18.4321 20.5503C18.3838 20.7348 18.3683 20.9271 18.3864 21.1176C18.404 21.3635 18.4907 21.5982 18.6355 21.7915C18.7803 21.9848 18.9764 22.1279 19.1987 22.2024C19.677 22.3621 19.8918 22.2756 20.0804 22.2024C20.1719 22.1642 20.2509 22.132 20.5919 22.3489C20.7971 22.4794 20.9925 22.5996 21.1922 22.7227C21.7356 23.0584 22.3012 23.4102 22.7309 23.7415L22.7448 29.8573L22.7323 38.4928Z" fill="white"/>
<path fill-rule="evenodd" clip-rule="evenodd" d="M41.9873 24.1013C41.7919 21.2267 40.5747 19.5981 38.8848 18.3711C38.8848 18.3389 38.8987 18.3066 38.9042 18.2744C40.2586 10.8555 33.6627 6.00484 28.1412 6.78469C26.5193 7.07787 25.3506 7.88705 24.8779 9.25766L24.8876 35.0852L24.9001 37.1771L24.9098 37.1477V37.4746L24.8876 37.5553L24.9098 37.5773V38.8233L24.9265 38.8027C25.4033 40.169 26.5692 40.9796 28.1884 41.2669C33.5186 42.0204 39.8525 37.5215 39.0609 30.5307C39.7887 29.9683 40.4017 29.2563 40.863 28.4374C41.6837 26.9495 42.0774 25.5012 41.9873 24.1013ZM36.4131 12.4152C37.4403 13.9207 37.6718 15.6929 37.4057 17.4403C36.4616 16.9111 35.4386 16.4244 34.4016 15.8776C30.6185 13.8855 27.3538 11.37 26.6316 9.35734C28.6569 7.04122 34.0592 8.97181 36.4131 12.4152ZM27.4578 13.0309C28.4282 13.9456 29.7299 14.8838 31.2797 15.8307C32.9627 16.8568 35.3124 17.6865 37.0591 18.9238C36.6313 20.2837 35.9861 21.5559 35.1516 22.6852C32.6092 19.6963 29.4263 16.9008 27.4578 13.0309ZM26.4014 27.445L26.4708 14.3414L26.4624 14.3253L26.3488 14.12C26.345 14.1117 26.3403 14.1038 26.3349 14.0966L26.3488 14.123C26.3913 14.1884 26.4293 14.257 26.4624 14.3282C28.4919 18.0721 31.6915 21.1417 34.1077 24.0031C31.6942 26.8718 28.4753 29.9443 26.4319 33.697L26.4014 27.445ZM26.5595 36.9894C28.3436 32.023 32.1933 28.8053 35.1544 25.3063C36.1885 26.6818 36.9303 28.2767 37.3294 29.9825C37.2435 30.0352 37.1575 30.0865 37.0688 30.1364C34.6359 31.6301 32.9821 32.2135 30.9803 33.4068C29.077 34.5429 27.7018 35.6613 26.5775 36.9645L26.5595 36.9894ZM36.4575 35.6349C34.2131 38.92 29.1934 40.8286 26.9781 38.9874C27.5326 37.9188 29.1241 36.4001 31.0718 35.1849C33.7334 33.5226 35.8752 32.5463 37.5443 31.5598C37.6067 32.9919 37.2989 34.4036 36.4575 35.6349ZM38.7351 28.8537C38.2416 27.0507 37.3308 25.4822 36.2093 23.9943C37.1603 22.7307 37.956 21.3997 38.469 19.9147C41.2457 22.4038 41.1251 26.3514 38.7351 28.8537Z" fill="white"/>
<defs>
<linearGradient id="paint0_linear_228_9123" x1="-14.3548" y1="25.8492" x2="24.8167" y2="62.6205" gradientUnits="userSpaceOnUse">
<stop stop-color="#FF8473"/>
<stop offset="0.490859" stop-color="#B784FF"/>
<stop offset="1" stop-color="#2EB0FB"/>
</linearGradient>
</defs>
</svg>
