<svg width="17" height="16" viewBox="0 0 17 16" fill="none" xmlns="http://www.w3.org/2000/svg">
<path d="M14.3087 16H3.27193C2.6306 15.9972 2.01641 15.7414 1.56342 15.2884C1.11042 14.8354 0.855395 14.222 0.854004 13.582V5.40942C0.856653 4.97619 0.975904 4.55163 1.19928 4.18014C1.42267 3.80864 1.74197 3.50385 2.12381 3.29764L7.63162 0.293637C7.98634 0.100951 8.38379 0 8.78767 0C9.19156 0 9.589 0.100951 9.94373 0.293637L15.4674 3.28181C15.8492 3.48801 16.1686 3.7928 16.3919 4.1643C16.6153 4.53579 16.7346 4.96036 16.7372 5.39359V13.582C16.7358 14.2238 16.4793 14.8388 16.0241 15.2921C15.5688 15.7454 14.9519 16 14.3087 16ZM8.79032 1.05388C8.56312 1.05354 8.33944 1.1098 8.13954 1.21754L2.61587 4.21099C2.40162 4.32939 2.22324 4.50312 2.09943 4.71398C1.97562 4.92484 1.91094 5.16505 1.91218 5.40942V13.582C1.91218 13.9433 2.056 14.2897 2.31199 14.5452C2.56799 14.8006 2.91519 14.9441 3.27723 14.9441C7.58517 13.8549 10.0005 13.5474 14.3087 14.9441C14.6698 14.9427 15.0157 14.7986 15.2705 14.5433C15.5254 14.288 15.6685 13.9424 15.6685 13.582V5.40942C15.6687 5.16398 15.6024 4.92305 15.4767 4.71209C15.3509 4.50114 15.1704 4.328 14.9542 4.21099L9.4411 1.22282C9.24168 1.11324 9.01797 1.05516 8.79032 1.05388Z" fill="#C4C4C4"/>
<line x1="5.48613" y1="11.3679" x2="12.2219" y2="11.3679" stroke="#C4C4C4" stroke-width="1.26425" stroke-linecap="round"/>
</svg>
