<svg width="24" height="24" viewBox="0 0 24 24" fill="none" xmlns="http://www.w3.org/2000/svg">
<path fill-rule="evenodd" clip-rule="evenodd" d="M10.5667 9.16652H9.06659C7.78257 9.16652 7.01383 9.42638 6.55347 9.88674C6.09312 10.3471 5.83325 11.1158 5.83325 12.3999V14.9332C5.83325 16.2172 6.09312 16.9859 6.55347 17.4463C7.01383 17.9066 7.78257 18.1665 9.06659 18.1665H11.5999C12.8839 18.1665 13.6527 17.9066 14.113 17.4463C14.5734 16.9859 14.8333 16.2172 14.8333 14.9332V13.4332H13.2C12.3723 13.4332 11.6614 13.3017 11.1798 12.8201C10.6981 12.3385 10.5667 11.6276 10.5667 10.7999V9.16652ZM15.828 12.8602C15.8183 12.794 15.7956 12.732 15.7626 12.6768C15.7418 12.6419 15.7165 12.6092 15.6869 12.5796L11.4202 8.31297C11.331 8.22377 11.2138 8.17357 11.0929 8.1672C11.0828 8.16667 11.0728 8.16644 11.0627 8.16652M11.0627 8.16652H9.06659C7.68394 8.16652 6.58601 8.43999 5.84637 9.17963C5.10672 9.91928 4.83325 11.0172 4.83325 12.3999V14.9332C4.83325 16.3158 5.10672 17.4138 5.84637 18.1534C6.58601 18.893 7.68394 19.1665 9.06659 19.1665H11.5999C12.9826 19.1665 14.0805 18.893 14.8201 18.1534C15.5598 17.4138 15.8333 16.3158 15.8333 14.9332V12.9422C15.8337 12.9147 15.832 12.8873 15.828 12.8602M11.5667 10.7999V9.87363L14.1262 12.4332H13.2C12.4277 12.4332 12.0719 12.298 11.8869 12.113C11.7018 11.9279 11.5667 11.5722 11.5667 10.7999Z" fill="white" fill-opacity="0.6"/>
<path fill-rule="evenodd" clip-rule="evenodd" d="M14.1667 5.83351H12.4134H11.7334H10.6667C9.83622 5.83351 9.16675 6.50299 9.16675 7.33351C9.16675 7.60965 8.94289 7.83351 8.66675 7.83351C8.39061 7.83351 8.16675 7.60965 8.16675 7.33351C8.16675 5.9507 9.28394 4.83351 10.6667 4.83351H11.7334H12.4134H14.4001C14.4463 4.83351 14.4911 4.83979 14.5336 4.85155C14.7056 4.804 14.892 4.85161 15.0203 4.97996L19.0203 8.97996C19.1196 9.07922 19.1705 9.21319 19.1665 9.34835V13.4602C19.1665 14.7697 18.1027 15.8335 16.7932 15.8335C16.5171 15.8335 16.2932 15.6097 16.2932 15.3335C16.2932 15.0574 16.5171 14.8335 16.7932 14.8335C17.5504 14.8335 18.1665 14.2174 18.1665 13.4602V9.83351H16.6667C15.889 9.83351 15.2115 9.71035 14.7507 9.24957C14.2899 8.78878 14.1667 8.11121 14.1667 7.33351V5.83351ZM15.1667 7.33351V6.54062L17.4596 8.83351H16.6667C15.9444 8.83351 15.622 8.70668 15.4578 8.54246C15.2936 8.37824 15.1667 8.05581 15.1667 7.33351Z" fill="white" fill-opacity="0.6"/>
</svg>
