<svg width="34" height="32" viewBox="0 0 34 32" fill="none" xmlns="http://www.w3.org/2000/svg">
<g clip-path="url(#clip0_194_1832)">
<path d="M17 0.205811C16.4983 0.205811 15.9966 0.30874 15.5361 0.5146L3.18162 5.94565C2.39655 6.29077 1.88892 7.07788 1.88892 7.95581C1.88892 8.83374 2.39655 9.62085 3.18162 9.96597L15.5361 15.397C15.9966 15.6029 16.4983 15.7058 17 15.7058C17.5018 15.7058 18.0035 15.6029 18.4639 15.397L30.8184 9.96597C31.6035 9.62085 32.1111 8.82769 32.1111 7.95581C32.1111 7.08394 31.6035 6.29077 30.8184 5.94565L18.4639 0.5146C18.0035 0.30874 17.5018 0.205811 17 0.205811ZM16.6518 3.18472C16.7639 3.13628 16.882 3.11206 17 3.11206C17.1181 3.11206 17.2361 3.13628 17.3483 3.18472L28.1976 7.95581L17.3483 12.7269C17.2361 12.7753 17.1181 12.7996 17 12.7996C16.882 12.7996 16.7639 12.7753 16.6518 12.7269L5.80246 7.95581L16.6518 3.18472ZM3.18162 13.6957C2.39655 14.0408 1.88892 14.8279 1.88892 15.7058C1.88892 16.5837 2.39655 17.3708 3.18162 17.716L15.5361 23.147C15.9966 23.3529 16.4983 23.4558 17 23.4558C17.5018 23.4558 18.0035 23.3529 18.4639 23.147L30.8184 17.716C31.6035 17.3708 32.1111 16.5777 32.1111 15.7058C32.1111 14.8339 31.6035 14.0408 30.8184 13.6957L28.9768 12.8843L25.382 14.4646L28.1976 15.7058L17.3483 20.4769C17.2361 20.5253 17.1181 20.5496 17 20.5496C16.882 20.5496 16.7639 20.5253 16.6518 20.4769L5.80246 15.7058L8.61808 14.4646L5.02329 12.8843L3.18162 13.6957ZM3.18162 21.4457C2.39655 21.7908 1.88892 22.5779 1.88892 23.4558C1.88892 24.3337 2.39655 25.1208 3.18162 25.466L15.5361 30.897C15.9966 31.1029 16.4983 31.2058 17 31.2058C17.5018 31.2058 18.0035 31.1029 18.4639 30.897L30.8184 25.466C31.6035 25.1208 32.1111 24.3277 32.1111 23.4558C32.1111 22.5839 31.6035 21.7908 30.8184 21.4457L28.9768 20.6343L25.382 22.2146L28.1976 23.4558L17.3483 28.2269C17.2361 28.2753 17.1181 28.2996 17 28.2996C16.882 28.2996 16.7639 28.2753 16.6518 28.2269L5.80246 23.4558L8.61808 22.2146L5.02329 20.6343L3.18162 21.4457Z" fill="#E5E5E5"/>
</g>
<defs>
<clipPath id="clip0_194_1832">
<rect width="34" height="31" fill="white" transform="translate(0 0.205811)"/>
</clipPath>
</defs>
</svg>
