<svg xmlns="http://www.w3.org/2000/svg" width="32" height="32" viewBox="0 0 32 32" fill="none">
  <rect width="32" height="32" rx="8" fill="white"/>
  <path d="M6 12.4444V20C6 21.2444 6 21.8667 6.24222 22.3422C6.45527 22.7603 6.79521 23.1003 7.21333 23.3133C7.68778 23.5556 8.31 23.5556 9.55222 23.5556H22.4478C23.69 23.5556 24.3111 23.5556 24.7856 23.3133C25.2044 23.1 25.5444 22.76 25.7578 22.3422C26 21.8667 26 21.2467 26 20.0044V14.6667M6 12.4444V11.5556C6 10.3111 6 9.68889 6.24222 9.21333C6.45556 8.79444 6.79444 8.45556 7.21333 8.24222C7.68889 8 8.31111 8 9.55556 8H16.5556M6 12.4444H16.5556M9.33333 19.1111H13.7778M19.8889 10.7778H25.4444" stroke="#AB69FF" stroke-width="1.5" stroke-linecap="round" stroke-linejoin="round"/>
</svg>