<svg width="24" height="24" viewBox="0 0 24 24" fill="none" xmlns="http://www.w3.org/2000/svg">
<path d="M19.2556 1.80326C18.1483 0.541113 16.1466 0 13.5858 0H6.15375C5.90039 9.38142e-06 5.65534 0.0904005 5.46266 0.254922C5.26998 0.419444 5.14231 0.647304 5.1026 0.897536L2.00803 20.5241C1.94652 20.9111 2.2462 21.2615 2.63847 21.2615H7.22676L8.37908 13.9526L8.34332 14.1815C8.42541 13.6648 8.86726 13.2838 9.39049 13.2838H11.5708C15.8541 13.2838 19.208 11.544 20.1877 6.51123C20.2168 6.36238 20.242 6.21751 20.2638 6.07597C20.1401 6.01049 20.1401 6.01049 20.2638 6.07597C20.5555 4.21582 20.2618 2.94962 19.2556 1.80326Z" fill="#27346A"/>
<path d="M10.1347 5.40588C10.2602 5.34615 10.3974 5.3152 10.5363 5.31528H16.3629C17.0529 5.31528 17.6964 5.36019 18.2845 5.45483C18.449 5.48107 18.6128 5.5124 18.7754 5.54877C19.0059 5.59963 19.2337 5.66188 19.458 5.73528C19.7471 5.83184 20.0164 5.94429 20.2638 6.07597C20.5555 4.2151 20.2618 2.94962 19.2556 1.80326C18.1476 0.541113 16.1466 0 13.5858 0H6.15312C5.62981 0 5.18461 0.38098 5.1026 0.897536L2.00803 20.5233C1.94652 20.911 2.2462 21.261 2.63783 21.261H7.22676L9.61746 6.10045C9.64097 5.95144 9.70033 5.81036 9.79044 5.68937C9.88054 5.56838 9.9987 5.47109 10.1347 5.40588Z" fill="#27346A"/>
<path d="M20.1891 6.51143C19.2094 11.5435 15.8556 13.284 11.5723 13.284H9.39129C8.86806 13.284 8.42613 13.665 8.34483 14.1817L6.91127 23.2695C6.8577 23.6082 7.11964 23.9151 7.46231 23.9151H11.3301C11.5517 23.915 11.766 23.8359 11.9344 23.692C12.1029 23.5481 12.2144 23.3488 12.249 23.1299L12.2867 22.9328L13.0157 18.3128L13.0627 18.0574C13.0973 17.8386 13.2088 17.6393 13.3773 17.4954C13.5457 17.3514 13.7599 17.2723 13.9815 17.2723H14.5604C18.3071 17.2723 21.2409 15.7501 22.0983 11.3477C22.4561 9.50801 22.271 7.97201 21.3243 6.89313C21.0372 6.56634 20.6806 6.29646 20.2652 6.07617C20.2427 6.21842 20.2183 6.36258 20.1891 6.51143Z" fill="#2790C3"/>
<path d="M19.2402 5.66838C19.0874 5.62378 18.9332 5.58428 18.7778 5.54997C18.6151 5.5142 18.4514 5.48308 18.2869 5.45667C17.6982 5.36139 17.0552 5.31641 16.3646 5.31641H10.5387C10.3996 5.31609 10.2623 5.34731 10.1371 5.40772C10.0009 5.47273 9.88264 5.56996 9.7925 5.69099C9.70235 5.81201 9.64306 5.95319 9.61977 6.10229L8.38147 13.9538L8.3457 14.1827C8.42716 13.666 8.86901 13.285 9.39233 13.285H11.5733C15.8566 13.285 19.2104 11.5452 20.1901 6.51244C20.2193 6.36359 20.2437 6.21935 20.2662 6.07718C20.0181 5.94621 19.7496 5.83304 19.4604 5.73712C19.3874 5.71293 19.314 5.69002 19.2403 5.66838" fill="#1F264F"/>
</svg>
