<svg xmlns="http://www.w3.org/2000/svg" width="32" height="32" viewBox="0 0 32 32" fill="none">
  <path d="M24 5.66675C24 4.8711 23.6839 4.10804 23.1213 3.54543C22.5587 2.98282 21.7956 2.66675 21 2.66675H11C10.2044 2.66675 9.44129 2.98282 8.87868 3.54543C8.31607 4.10804 8 4.8711 8 5.66675V26.3334C8 27.1291 8.31607 27.8921 8.87868 28.4547C9.44129 29.0173 10.2044 29.3334 11 29.3334H14.7827L15.3907 27.3334H11C10.7348 27.3334 10.4804 27.2281 10.2929 27.0405C10.1054 26.853 10 26.5986 10 26.3334V5.66675C10 5.40153 10.1054 5.14718 10.2929 4.95964C10.4804 4.7721 10.7348 4.66675 11 4.66675H21C21.2652 4.66675 21.5196 4.7721 21.7071 4.95964C21.8946 5.14718 22 5.40153 22 5.66675V14.7694C22.6615 14.6671 23.3326 14.6411 24 14.6921V5.66675ZM28 17.6747C26.6878 16.5895 25.0375 15.9971 23.3347 16.0001C22.0577 15.9998 20.8028 16.3329 19.6941 16.9664C18.5854 17.5999 17.6613 18.5118 17.0132 19.6121C16.3651 20.7123 16.0155 21.9627 15.9989 23.2395C15.9823 24.5163 16.2993 25.7754 16.9187 26.8921L16.0307 29.8067C15.9951 29.9224 15.9918 30.0456 16.0209 30.1631C16.0501 30.2806 16.1107 30.3879 16.1962 30.4735C16.2817 30.5592 16.3889 30.6199 16.5063 30.6493C16.6237 30.6786 16.7469 30.6754 16.8627 30.6401L19.7787 29.7521C21.3789 30.6424 23.2542 30.9019 25.0361 30.4796C26.8179 30.0573 28.3773 28.9837 29.4078 27.47C30.4382 25.9562 30.8652 24.1117 30.6047 22.2992C30.3442 20.4866 29.4151 18.837 28 17.6747ZM20.6667 22.6667C20.4899 22.6667 20.3203 22.5965 20.1953 22.4715C20.0702 22.3465 20 22.1769 20 22.0001C20 21.8233 20.0702 21.6537 20.1953 21.5287C20.3203 21.4037 20.4899 21.3334 20.6667 21.3334H26.0027C26.1795 21.3334 26.349 21.4037 26.4741 21.5287C26.5991 21.6537 26.6693 21.8233 26.6693 22.0001C26.6693 22.1769 26.5991 22.3465 26.4741 22.4715C26.349 22.5965 26.1795 22.6667 26.0027 22.6667H20.6667ZM23.3347 25.3334H20.668C20.4912 25.3334 20.3216 25.2632 20.1966 25.1382C20.0716 25.0131 20.0013 24.8436 20.0013 24.6667C20.0013 24.4899 20.0716 24.3204 20.1966 24.1953C20.3216 24.0703 20.4912 24.0001 20.668 24.0001H23.3347C23.5115 24.0001 23.681 24.0703 23.8061 24.1953C23.9311 24.3204 24.0013 24.4899 24.0013 24.6667C24.0013 24.8436 23.9311 25.0131 23.8061 25.1382C23.681 25.2632 23.5115 25.3334 23.3347 25.3334Z" fill="url(#paint0_linear_258_28220)"/>
  <defs>
    <linearGradient id="paint0_linear_258_28220" x1="7.15734" y1="30.6773" x2="29.8796" y2="32.0444" gradientUnits="userSpaceOnUse">
      <stop stop-color="#FF8473"/>
      <stop offset="0.490859" stop-color="#B784FF"/>
      <stop offset="1" stop-color="#2EB0FB"/>
    </linearGradient>
  </defs>
</svg>