<svg width="26" height="26" viewBox="0 0 26 26" fill="none" xmlns="http://www.w3.org/2000/svg">
<path d="M4.2734 17.9645C2.41942 16.1093 1.49183 15.1829 1.14744 13.9793C0.801842 12.7757 1.09704 11.4978 1.68743 8.943L2.02703 7.46942C2.52262 5.31904 2.77102 4.24385 3.50661 3.50706C4.2434 2.77147 5.31859 2.52308 7.46896 2.02748L8.94254 1.68669C11.4985 1.09749 12.7753 0.802297 13.9789 1.14669C15.1825 1.49229 16.1089 2.41988 17.9628 4.27385L20.1588 6.46983C23.388 9.69779 24.9995 11.3106 24.9995 13.3145C24.9995 15.3197 23.3868 16.9325 20.16 20.1593C16.932 23.3872 15.3193 25 13.3141 25C11.3101 25 9.69613 23.3872 6.46937 20.1605L4.2734 17.9645Z" stroke="white" stroke-opacity="0.6"/>
<path d="M17.0683 17.0683C17.7702 16.364 17.865 15.32 17.2794 14.7332C16.6939 14.1476 15.6487 14.2424 14.9455 14.9456C14.2435 15.6488 13.1983 15.7436 12.6127 15.158C12.0271 14.5724 12.1219 13.5272 12.8251 12.8252M12.8251 12.8252L12.4003 12.4004M12.8251 12.8252C13.2223 12.4268 13.7287 12.2252 14.2003 12.2288M17.4918 17.4919L17.0671 17.0671C16.5871 17.5483 15.9451 17.7451 15.4003 17.6323" stroke="white" stroke-opacity="0.6" stroke-linecap="round"/>
<path d="M10.6263 10.9517C11.5635 10.0144 11.5635 8.49485 10.6263 7.5576C9.68902 6.62036 8.16944 6.62036 7.23219 7.5576C6.29495 8.49485 6.29494 10.0144 7.23219 10.9517C8.16944 11.8889 9.68902 11.8889 10.6263 10.9517Z" stroke="white" stroke-opacity="0.6"/>
</svg>
