<svg width="16" height="16" viewBox="0 0 16 16" fill="none" xmlns="http://www.w3.org/2000/svg">
<path fill-rule="evenodd" clip-rule="evenodd" d="M1.89878 0.69751C2.336 0.69751 2.69045 1.05195 2.69045 1.48918V2.73364C4.03527 1.47143 5.84511 0.69751 7.83628 0.69751C11.9899 0.69751 15.3571 4.0647 15.3571 8.21834C15.3571 12.372 11.9899 15.7392 7.83628 15.7392C3.98142 15.7392 0.804921 12.8397 0.366908 9.10216C0.316012 8.66793 0.626788 8.27463 1.06104 8.22372C1.49529 8.17282 1.88859 8.48363 1.93947 8.91786C2.2851 11.8671 4.79397 14.1558 7.83628 14.1558C11.1154 14.1558 13.7738 11.4975 13.7738 8.21834C13.7738 4.93915 11.1154 2.28084 7.83628 2.28084C6.07847 2.28084 4.4983 3.04456 3.4105 4.26001H5.46128C5.8985 4.26001 6.25295 4.61445 6.25295 5.05168C6.25295 5.4889 5.8985 5.84334 5.46128 5.84334H1.89878C1.47179 5.84334 1.12375 5.50529 1.10769 5.08223C1.10698 5.0657 1.10678 5.04912 1.10712 5.03252V1.48918C1.10712 1.05195 1.46155 0.69751 1.89878 0.69751Z" fill="#7D7F7E"/>
</svg>
