<svg width="62" height="22" viewBox="0 0 62 22" fill="none" xmlns="http://www.w3.org/2000/svg">
<path d="M1.04696 17.5467C1.00292 17.5469 0.959027 17.5415 0.916332 17.5307C0.648034 17.4682 0.454102 17.2386 0.454102 16.9632V15.7757C0.454102 11.5197 3.91682 8.05703 8.17278 8.05703H8.37064V5.48404C8.37073 5.36558 8.40619 5.24985 8.47248 5.15168C8.53878 5.05351 8.63288 4.97738 8.74273 4.93304C8.85248 4.88886 8.97294 4.87851 9.08861 4.90334C9.20429 4.92816 9.30989 4.98702 9.39184 5.07235L14.5377 10.416C14.7593 10.6457 14.7593 11.0098 14.5377 11.2394L9.39184 16.5831C9.224 16.7581 8.96509 16.812 8.74273 16.7224C8.63288 16.6781 8.53878 16.602 8.47248 16.5038C8.40619 16.4056 8.37073 16.2899 8.37064 16.1714V13.5986H7.43015C4.93965 13.5986 2.7015 14.9823 1.58852 17.2093C1.48633 17.4152 1.2718 17.5467 1.04696 17.5467ZM8.17278 9.24452C4.84773 9.24452 2.09443 11.7421 1.69146 14.9602C3.13055 13.3548 5.19448 12.4111 7.43015 12.4111H8.96439C9.29213 12.4111 9.55813 12.6771 9.55813 13.0048V14.6989L13.286 10.8277L9.55813 6.95652V8.65077C9.55813 8.97852 9.29213 9.24452 8.96439 9.24452H8.17278Z" fill="white"/>
<path d="M23.4025 15.8165C22.7492 15.8165 22.1612 15.7045 21.6385 15.4805C21.1158 15.2472 20.7052 14.9205 20.4065 14.5005C20.1078 14.0805 19.9585 13.5905 19.9585 13.0305H21.6665C21.7038 13.4505 21.8672 13.7958 22.1565 14.0665C22.4552 14.3372 22.8705 14.4725 23.4025 14.4725C23.9532 14.4725 24.3825 14.3418 24.6905 14.0805C24.9985 13.8098 25.1525 13.4645 25.1525 13.0445C25.1525 12.7178 25.0545 12.4518 24.8585 12.2465C24.6718 12.0412 24.4338 11.8825 24.1445 11.7705C23.8645 11.6585 23.4725 11.5372 22.9685 11.4065C22.3338 11.2385 21.8158 11.0705 21.4145 10.9025C21.0225 10.7252 20.6865 10.4545 20.4065 10.0905C20.1265 9.72651 19.9865 9.24117 19.9865 8.63451C19.9865 8.07451 20.1265 7.58451 20.4065 7.16451C20.6865 6.74451 21.0785 6.42251 21.5825 6.19851C22.0865 5.97451 22.6698 5.86251 23.3325 5.86251C24.2752 5.86251 25.0452 6.10051 25.6425 6.57651C26.2492 7.04317 26.5852 7.68717 26.6505 8.50851H24.8865C24.8585 8.15384 24.6905 7.85051 24.3825 7.59851C24.0745 7.34651 23.6685 7.22051 23.1645 7.22051C22.7072 7.22051 22.3338 7.33717 22.0445 7.57051C21.7552 7.80384 21.6105 8.13984 21.6105 8.57851C21.6105 8.87717 21.6992 9.12451 21.8765 9.32051C22.0632 9.50717 22.2965 9.65651 22.5765 9.76851C22.8565 9.88051 23.2392 10.0018 23.7245 10.1325C24.3685 10.3098 24.8912 10.4872 25.2925 10.6645C25.7032 10.8418 26.0485 11.1172 26.3285 11.4905C26.6178 11.8545 26.7625 12.3445 26.7625 12.9605C26.7625 13.4552 26.6272 13.9218 26.3565 14.3605C26.0952 14.7992 25.7078 15.1538 25.1945 15.4245C24.6905 15.6858 24.0932 15.8165 23.4025 15.8165ZM32.6357 7.87851C33.2237 7.87851 33.7464 8.00451 34.2037 8.25651C34.6704 8.50851 35.0344 8.88184 35.2957 9.37651C35.5664 9.87117 35.7017 10.4685 35.7017 11.1685V15.7185H34.1197V11.4065C34.1197 10.7158 33.947 10.1885 33.6017 9.82451C33.2564 9.45117 32.785 9.26451 32.1877 9.26451C31.5904 9.26451 31.1144 9.45117 30.7597 9.82451C30.4144 10.1885 30.2417 10.7158 30.2417 11.4065V15.7185H28.6457V5.35851H30.2417V8.90051C30.5124 8.57384 30.853 8.32184 31.2637 8.14451C31.6837 7.96717 32.141 7.87851 32.6357 7.87851ZM37.2055 11.8265C37.2055 11.0518 37.3642 10.3658 37.6815 9.76851C38.0082 9.17117 38.4468 8.70917 38.9975 8.38251C39.5575 8.04651 40.1735 7.87851 40.8455 7.87851C41.4522 7.87851 41.9795 7.99984 42.4275 8.24251C42.8848 8.47584 43.2488 8.76984 43.5195 9.12451V8.00451H45.1295V15.7185H43.5195V14.5705C43.2488 14.9345 42.8802 15.2378 42.4135 15.4805C41.9468 15.7232 41.4148 15.8445 40.8175 15.8445C40.1548 15.8445 39.5482 15.6765 38.9975 15.3405C38.4468 14.9952 38.0082 14.5192 37.6815 13.9125C37.3642 13.2965 37.2055 12.6012 37.2055 11.8265ZM43.5195 11.8545C43.5195 11.3225 43.4075 10.8605 43.1835 10.4685C42.9688 10.0765 42.6842 9.77784 42.3295 9.57251C41.9748 9.36717 41.5922 9.26451 41.1815 9.26451C40.7708 9.26451 40.3882 9.36717 40.0335 9.57251C39.6788 9.76851 39.3895 10.0625 39.1655 10.4545C38.9508 10.8372 38.8435 11.2945 38.8435 11.8265C38.8435 12.3585 38.9508 12.8252 39.1655 13.2265C39.3895 13.6278 39.6788 13.9358 40.0335 14.1505C40.3975 14.3558 40.7802 14.4585 41.1815 14.4585C41.5922 14.4585 41.9748 14.3558 42.3295 14.1505C42.6842 13.9452 42.9688 13.6465 43.1835 13.2545C43.4075 12.8532 43.5195 12.3865 43.5195 11.8545ZM48.8218 9.12451C49.0551 8.73251 49.3631 8.42917 49.7458 8.21451C50.1378 7.99051 50.5998 7.87851 51.1318 7.87851V9.53051H50.7258C50.1004 9.53051 49.6244 9.68917 49.2978 10.0065C48.9804 10.3238 48.8218 10.8745 48.8218 11.6585V15.7185H47.2258V8.00451H48.8218V9.12451ZM59.6688 11.6725C59.6688 11.9618 59.6502 12.2232 59.6128 12.4565H53.7188C53.7655 13.0725 53.9942 13.5672 54.4048 13.9405C54.8155 14.3138 55.3195 14.5005 55.9168 14.5005C56.7755 14.5005 57.3822 14.1412 57.7368 13.4225H59.4588C59.2255 14.1318 58.8008 14.7152 58.1848 15.1725C57.5782 15.6205 56.8222 15.8445 55.9168 15.8445C55.1795 15.8445 54.5168 15.6812 53.9288 15.3545C53.3502 15.0185 52.8928 14.5518 52.5568 13.9545C52.2302 13.3478 52.0668 12.6478 52.0668 11.8545C52.0668 11.0612 52.2255 10.3658 52.5428 9.76851C52.8695 9.16184 53.3222 8.69517 53.9008 8.36851C54.4888 8.04184 55.1608 7.87851 55.9168 7.87851C56.6448 7.87851 57.2935 8.03717 57.8628 8.35451C58.4322 8.67184 58.8755 9.11984 59.1928 9.69851C59.5102 10.2678 59.6688 10.9258 59.6688 11.6725ZM58.0028 11.1685C57.9935 10.5805 57.7835 10.1092 57.3728 9.75451C56.9622 9.39984 56.4535 9.22251 55.8468 9.22251C55.2962 9.22251 54.8248 9.39984 54.4328 9.75451C54.0408 10.0998 53.8075 10.5712 53.7328 11.1685H58.0028Z" fill="white"/>
</svg>
