<svg width="274" height="54" viewBox="0 0 274 54" fill="none" xmlns="http://www.w3.org/2000/svg">
<path fill-rule="evenodd" clip-rule="evenodd" d="M1 9C1 4.58172 4.58172 1 9 1H39.1919C40.8042 1 42.3789 1.48715 43.7095 2.39759L48.0685 5.38018C49.3991 6.29063 50.9738 6.77778 52.5861 6.77778H265C269.418 6.77778 273 10.3595 273 14.7778V45C273 49.4183 269.418 53 265 53H9.00001C4.58173 53 1 49.4183 1 45V9Z" stroke="url(#paint0_linear_633_743)" stroke-width="0.5"/>
<path fill-rule="evenodd" clip-rule="evenodd" d="M1 9C1 4.58172 4.58172 1 9 1H39.1919C40.8042 1 42.3789 1.48715 43.7095 2.39759L48.0685 5.38018C49.3991 6.29063 50.9738 6.77778 52.5861 6.77778H265C269.418 6.77778 273 10.3595 273 14.7778V45C273 49.4183 269.418 53 265 53H9.00001C4.58173 53 1 49.4183 1 45V9Z" stroke="url(#paint1_linear_633_743)" stroke-width="0.5"/>
<path fill-rule="evenodd" clip-rule="evenodd" d="M1 9C1 4.58172 4.58172 1 9 1H39.1919C40.8042 1 42.3789 1.48715 43.7095 2.39759L48.0685 5.38018C49.3991 6.29063 50.9738 6.77778 52.5861 6.77778H265C269.418 6.77778 273 10.3595 273 14.7778V45C273 49.4183 269.418 53 265 53H9.00001C4.58173 53 1 49.4183 1 45V9Z" stroke="url(#paint2_linear_633_743)" stroke-width="0.5"/>
<path fill-rule="evenodd" clip-rule="evenodd" d="M1 9C1 4.58172 4.58172 1 9 1H39.1919C40.8042 1 42.3789 1.48715 43.7095 2.39759L48.0685 5.38018C49.3991 6.29063 50.9738 6.77778 52.5861 6.77778H265C269.418 6.77778 273 10.3595 273 14.7778V45C273 49.4183 269.418 53 265 53H9.00001C4.58173 53 1 49.4183 1 45V9Z" fill="url(#paint3_linear_633_743)"/>
<rect x="178.038" y="20.3333" width="0.8375" height="0.833333" fill="#666878" fill-opacity="0.5"/>
<rect x="178.038" y="42.8333" width="0.8375" height="0.833333" fill="#666878" fill-opacity="0.5"/>
<rect x="185.575" y="20.3333" width="0.8375" height="0.833333" fill="#666878" fill-opacity="0.5"/>
<rect x="185.575" y="27.8333" width="0.8375" height="0.833333" fill="#666878" fill-opacity="0.5"/>
<rect x="185.575" y="35.3333" width="0.8375" height="0.833333" fill="#666878" fill-opacity="0.5"/>
<rect x="185.575" y="42.8333" width="0.8375" height="0.833333" fill="#666878"/>
<rect x="193.113" y="20.3333" width="0.8375" height="0.833333" fill="#666878" fill-opacity="0.5"/>
<rect x="193.113" y="27.8333" width="0.8375" height="0.833333" fill="#666878" fill-opacity="0.5"/>
<rect x="193.113" y="35.3333" width="0.8375" height="0.833333" fill="url(#paint4_linear_633_743)"/>
<rect x="193.113" y="42.8333" width="0.8375" height="0.833333" fill="#666878"/>
<rect x="200.65" y="20.3333" width="0.8375" height="0.833333" fill="#666878"/>
<rect x="200.65" y="27.8333" width="0.8375" height="0.833333" fill="url(#paint5_linear_633_743)"/>
<rect x="200.65" y="35.3333" width="0.8375" height="0.833333" fill="#666878"/>
<rect x="200.65" y="42.8333" width="0.8375" height="0.833333" fill="#666878"/>
<rect x="208.188" y="20.3333" width="0.8375" height="0.833333" fill="#666878" fill-opacity="0.5"/>
<rect x="208.188" y="27.8333" width="0.8375" height="0.833333" fill="#666878" fill-opacity="0.5"/>
<rect x="208.188" y="35.3333" width="0.8375" height="0.833333" fill="#666878"/>
<rect x="208.188" y="42.8333" width="0.8375" height="0.833333" fill="#666878" fill-opacity="0.5"/>
<rect x="215.725" y="20.3333" width="0.8375" height="0.833333" fill="#666878" fill-opacity="0.5"/>
<rect x="215.725" y="27.8333" width="0.8375" height="0.833333" fill="#666878" fill-opacity="0.5"/>
<rect x="215.725" y="35.3333" width="0.8375" height="0.833333" fill="#666878"/>
<rect x="215.725" y="42.8333" width="0.8375" height="0.833333" fill="#666878" fill-opacity="0.5"/>
<rect x="223.262" y="20.3333" width="0.8375" height="0.833333" fill="#666878" fill-opacity="0.5"/>
<rect x="223.262" y="27.8333" width="0.8375" height="0.833333" fill="#666878" fill-opacity="0.5"/>
<rect x="223.262" y="35.3333" width="0.8375" height="0.833333" fill="#666878" fill-opacity="0.5"/>
<rect x="223.262" y="42.8333" width="0.8375" height="0.833333" fill="#666878" fill-opacity="0.5"/>
<rect x="230.8" y="20.3333" width="0.8375" height="0.833333" fill="url(#paint6_linear_633_743)"/>
<rect x="230.8" y="27.8333" width="0.8375" height="0.833333" fill="#666878" fill-opacity="0.5"/>
<rect x="230.8" y="35.3333" width="0.8375" height="0.833333" fill="#666878"/>
<rect x="230.8" y="42.8333" width="0.8375" height="0.833333" fill="#666878"/>
<rect x="238.338" y="20.3333" width="0.8375" height="0.833333" fill="url(#paint7_linear_633_743)"/>
<rect x="238.338" y="27.8333" width="0.8375" height="0.833333" fill="#666878"/>
<rect x="238.338" y="35.3333" width="0.8375" height="0.833333" fill="#666878"/>
<rect x="238.338" y="42.8333" width="0.8375" height="0.833333" fill="url(#paint8_linear_633_743)"/>
<rect x="245.875" y="20.3333" width="0.8375" height="0.833333" fill="#666878"/>
<rect x="245.875" y="27.8333" width="0.8375" height="0.833333" fill="#666878"/>
<rect x="245.875" y="35.3333" width="0.8375" height="0.833333" fill="url(#paint9_linear_633_743)"/>
<rect x="245.875" y="42.8333" width="0.8375" height="0.833333" fill="#666878"/>
<rect x="253.413" y="27.8333" width="0.8375" height="0.833333" fill="#666878"/>
<rect x="253.413" y="35.3333" width="0.8375" height="0.833333" fill="url(#paint10_linear_633_743)"/>
<rect width="0.8375" height="0.833333" transform="matrix(-1 0 0 1 95.9624 20.3333)" fill="#666878" fill-opacity="0.5"/>
<rect width="0.8375" height="0.833333" transform="matrix(-1 0 0 1 95.9624 42.8333)" fill="#666878" fill-opacity="0.5"/>
<rect width="0.8375" height="0.833333" transform="matrix(-1 0 0 1 88.425 20.3333)" fill="#666878" fill-opacity="0.5"/>
<rect width="0.8375" height="0.833333" transform="matrix(-1 0 0 1 88.425 27.8333)" fill="#666878" fill-opacity="0.5"/>
<rect width="0.8375" height="0.833333" transform="matrix(-1 0 0 1 88.425 35.3333)" fill="#666878" fill-opacity="0.5"/>
<rect width="0.8375" height="0.833333" transform="matrix(-1 0 0 1 88.425 42.8333)" fill="#666878"/>
<rect width="0.8375" height="0.833333" transform="matrix(-1 0 0 1 80.8875 20.3333)" fill="#666878" fill-opacity="0.5"/>
<rect width="0.8375" height="0.833333" transform="matrix(-1 0 0 1 80.8875 27.8333)" fill="#666878" fill-opacity="0.5"/>
<rect width="0.8375" height="0.833333" transform="matrix(-1 0 0 1 80.8875 35.3333)" fill="url(#paint11_linear_633_743)"/>
<rect width="0.8375" height="0.833333" transform="matrix(-1 0 0 1 80.8875 42.8333)" fill="#666878"/>
<rect width="0.8375" height="0.833333" transform="matrix(-1 0 0 1 73.35 20.3333)" fill="#666878"/>
<rect width="0.8375" height="0.833333" transform="matrix(-1 0 0 1 73.35 27.8333)" fill="url(#paint12_linear_633_743)"/>
<rect width="0.8375" height="0.833333" transform="matrix(-1 0 0 1 73.35 35.3333)" fill="#666878"/>
<rect width="0.8375" height="0.833333" transform="matrix(-1 0 0 1 73.35 42.8333)" fill="#666878"/>
<rect width="0.8375" height="0.833333" transform="matrix(-1 0 0 1 65.8125 20.3333)" fill="#666878" fill-opacity="0.5"/>
<rect width="0.8375" height="0.833333" transform="matrix(-1 0 0 1 65.8125 27.8333)" fill="#666878" fill-opacity="0.5"/>
<rect width="0.8375" height="0.833333" transform="matrix(-1 0 0 1 65.8125 35.3333)" fill="#666878"/>
<rect width="0.8375" height="0.833333" transform="matrix(-1 0 0 1 65.8125 42.8333)" fill="#666878" fill-opacity="0.5"/>
<rect width="0.8375" height="0.833333" transform="matrix(-1 0 0 1 58.275 20.3333)" fill="#666878" fill-opacity="0.5"/>
<rect width="0.8375" height="0.833333" transform="matrix(-1 0 0 1 58.275 27.8333)" fill="#666878" fill-opacity="0.5"/>
<rect width="0.8375" height="0.833333" transform="matrix(-1 0 0 1 58.275 35.3333)" fill="#666878"/>
<rect width="0.8375" height="0.833333" transform="matrix(-1 0 0 1 58.275 42.8333)" fill="#666878" fill-opacity="0.5"/>
<rect width="0.8375" height="0.833333" transform="matrix(-1 0 0 1 50.7375 20.3333)" fill="#666878" fill-opacity="0.5"/>
<rect width="0.8375" height="0.833333" transform="matrix(-1 0 0 1 50.7375 27.8333)" fill="#666878" fill-opacity="0.5"/>
<rect width="0.8375" height="0.833333" transform="matrix(-1 0 0 1 50.7375 35.3333)" fill="#666878" fill-opacity="0.5"/>
<rect width="0.8375" height="0.833333" transform="matrix(-1 0 0 1 50.7375 42.8333)" fill="#666878" fill-opacity="0.5"/>
<rect width="0.8375" height="0.833333" transform="matrix(-1 0 0 1 43.2 20.3333)" fill="url(#paint13_linear_633_743)"/>
<rect width="0.8375" height="0.833333" transform="matrix(-1 0 0 1 43.2 27.8333)" fill="#666878" fill-opacity="0.5"/>
<rect width="0.8375" height="0.833333" transform="matrix(-1 0 0 1 43.2 35.3333)" fill="#666878"/>
<rect width="0.8375" height="0.833333" transform="matrix(-1 0 0 1 43.2 42.8333)" fill="#666878"/>
<rect width="0.8375" height="0.833333" transform="matrix(-1 0 0 1 35.6625 20.3333)" fill="url(#paint14_linear_633_743)"/>
<rect width="0.8375" height="0.833333" transform="matrix(-1 0 0 1 35.6625 27.8333)" fill="#666878"/>
<rect width="0.8375" height="0.833333" transform="matrix(-1 0 0 1 35.6625 35.3333)" fill="#666878"/>
<rect width="0.8375" height="0.833333" transform="matrix(-1 0 0 1 35.6625 42.8333)" fill="url(#paint15_linear_633_743)"/>
<rect width="0.8375" height="0.833333" transform="matrix(-1 0 0 1 28.125 20.3333)" fill="#666878"/>
<rect width="0.8375" height="0.833333" transform="matrix(-1 0 0 1 28.125 27.8333)" fill="#666878"/>
<rect width="0.8375" height="0.833333" transform="matrix(-1 0 0 1 28.125 35.3333)" fill="url(#paint16_linear_633_743)"/>
<rect width="0.8375" height="0.833333" transform="matrix(-1 0 0 1 28.125 42.8333)" fill="#666878"/>
<rect width="0.8375" height="0.833333" transform="matrix(-1 0 0 1 20.5874 27.8333)" fill="#666878"/>
<rect width="0.8375" height="0.833333" transform="matrix(-1 0 0 1 20.5874 35.3333)" fill="url(#paint17_linear_633_743)"/>
<defs>
<linearGradient id="paint0_linear_633_743" x1="1" y1="1" x2="1" y2="53" gradientUnits="userSpaceOnUse">
<stop stop-color="white" stop-opacity="0.2"/>
<stop offset="1" stop-color="white" stop-opacity="0.01"/>
</linearGradient>
<linearGradient id="paint1_linear_633_743" x1="-67" y1="3.07401" x2="-66.1876" y2="29.711" gradientUnits="userSpaceOnUse">
<stop stop-color="#FF8473"/>
<stop offset="1" stop-color="#FF8473" stop-opacity="0.01"/>
</linearGradient>
<linearGradient id="paint2_linear_633_743" x1="169.917" y1="-0.363156" x2="169.393" y2="39.2326" gradientUnits="userSpaceOnUse">
<stop stop-color="#EE8494"/>
<stop offset="1" stop-color="#FF8473" stop-opacity="0.01"/>
</linearGradient>
<linearGradient id="paint3_linear_633_743" x1="1" y1="53" x2="273" y2="53" gradientUnits="userSpaceOnUse">
<stop stop-color="#F2848E" stop-opacity="0.01"/>
<stop offset="0.496947" stop-color="#C184EC" stop-opacity="0.2"/>
<stop offset="1" stop-color="#659EFD" stop-opacity="0.01"/>
</linearGradient>
<linearGradient id="paint4_linear_633_743" x1="193.081" y1="36.1666" x2="193.919" y2="36.2291" gradientUnits="userSpaceOnUse">
<stop stop-color="#FF8473"/>
<stop offset="0.490859" stop-color="#B784FF"/>
<stop offset="1" stop-color="#2EB0FB"/>
</linearGradient>
<linearGradient id="paint5_linear_633_743" x1="200.619" y1="28.6666" x2="201.456" y2="28.7291" gradientUnits="userSpaceOnUse">
<stop stop-color="#FF8473"/>
<stop offset="0.490859" stop-color="#B784FF"/>
<stop offset="1" stop-color="#2EB0FB"/>
</linearGradient>
<linearGradient id="paint6_linear_633_743" x1="230.769" y1="21.1666" x2="231.606" y2="21.2291" gradientUnits="userSpaceOnUse">
<stop stop-color="#FF8473"/>
<stop offset="0.490859" stop-color="#B784FF"/>
<stop offset="1" stop-color="#2EB0FB"/>
</linearGradient>
<linearGradient id="paint7_linear_633_743" x1="238.306" y1="21.1666" x2="239.144" y2="21.2291" gradientUnits="userSpaceOnUse">
<stop stop-color="#FF8473"/>
<stop offset="0.490859" stop-color="#B784FF"/>
<stop offset="1" stop-color="#2EB0FB"/>
</linearGradient>
<linearGradient id="paint8_linear_633_743" x1="238.306" y1="43.6666" x2="239.144" y2="43.7291" gradientUnits="userSpaceOnUse">
<stop stop-color="#FF8473"/>
<stop offset="0.490859" stop-color="#B784FF"/>
<stop offset="1" stop-color="#2EB0FB"/>
</linearGradient>
<linearGradient id="paint9_linear_633_743" x1="245.844" y1="36.1666" x2="246.681" y2="36.2291" gradientUnits="userSpaceOnUse">
<stop stop-color="#FF8473"/>
<stop offset="0.490859" stop-color="#B784FF"/>
<stop offset="1" stop-color="#2EB0FB"/>
</linearGradient>
<linearGradient id="paint10_linear_633_743" x1="253.381" y1="36.1666" x2="254.219" y2="36.2291" gradientUnits="userSpaceOnUse">
<stop stop-color="#FF8473"/>
<stop offset="0.490859" stop-color="#B784FF"/>
<stop offset="1" stop-color="#2EB0FB"/>
</linearGradient>
<linearGradient id="paint11_linear_633_743" x1="-0.0311178" y1="0.833333" x2="0.806336" y2="0.895877" gradientUnits="userSpaceOnUse">
<stop stop-color="#FF8473"/>
<stop offset="0.490859" stop-color="#B784FF"/>
<stop offset="1" stop-color="#2EB0FB"/>
</linearGradient>
<linearGradient id="paint12_linear_633_743" x1="-0.0311178" y1="0.833333" x2="0.806336" y2="0.895877" gradientUnits="userSpaceOnUse">
<stop stop-color="#FF8473"/>
<stop offset="0.490859" stop-color="#B784FF"/>
<stop offset="1" stop-color="#2EB0FB"/>
</linearGradient>
<linearGradient id="paint13_linear_633_743" x1="-0.0311178" y1="0.833333" x2="0.806336" y2="0.895877" gradientUnits="userSpaceOnUse">
<stop stop-color="#FF8473"/>
<stop offset="0.490859" stop-color="#B784FF"/>
<stop offset="1" stop-color="#2EB0FB"/>
</linearGradient>
<linearGradient id="paint14_linear_633_743" x1="-0.0311178" y1="0.833333" x2="0.806336" y2="0.895877" gradientUnits="userSpaceOnUse">
<stop stop-color="#FF8473"/>
<stop offset="0.490859" stop-color="#B784FF"/>
<stop offset="1" stop-color="#2EB0FB"/>
</linearGradient>
<linearGradient id="paint15_linear_633_743" x1="-0.0311178" y1="0.833333" x2="0.806336" y2="0.895877" gradientUnits="userSpaceOnUse">
<stop stop-color="#FF8473"/>
<stop offset="0.490859" stop-color="#B784FF"/>
<stop offset="1" stop-color="#2EB0FB"/>
</linearGradient>
<linearGradient id="paint16_linear_633_743" x1="-0.0311178" y1="0.833333" x2="0.806336" y2="0.895877" gradientUnits="userSpaceOnUse">
<stop stop-color="#FF8473"/>
<stop offset="0.490859" stop-color="#B784FF"/>
<stop offset="1" stop-color="#2EB0FB"/>
</linearGradient>
<linearGradient id="paint17_linear_633_743" x1="-0.0311178" y1="0.833333" x2="0.806336" y2="0.895877" gradientUnits="userSpaceOnUse">
<stop stop-color="#FF8473"/>
<stop offset="0.490859" stop-color="#B784FF"/>
<stop offset="1" stop-color="#2EB0FB"/>
</linearGradient>
</defs>
</svg>
