<svg width="24" height="24" viewBox="0 0 24 24" fill="none" xmlns="http://www.w3.org/2000/svg">
<path d="M7.82817 9.04041C6.10617 9.43031 5.24517 9.62491 5.04006 10.2836C4.83566 10.9416 5.42227 11.6283 6.59617 13.001L6.89997 13.3559C7.23317 13.7458 7.40047 13.9411 7.47537 14.1819C7.55027 14.4234 7.52507 14.6838 7.47467 15.2039L7.42847 15.6778C7.25137 17.5097 7.16247 18.4253 7.69867 18.832C8.23487 19.2394 9.04128 18.8677 10.6527 18.1257L11.0706 17.9339C11.5284 17.7225 11.7573 17.6175 12.0002 17.6175C12.2431 17.6175 12.472 17.7225 12.9305 17.9339L13.347 18.1257C14.9591 18.8677 15.7655 19.2387 16.301 18.8327C16.8379 18.4253 16.749 17.5097 16.5719 15.6778M17.4042 13.001C18.5781 11.629 19.1647 10.9423 18.9603 10.2836C18.7552 9.62491 17.8942 9.42961 16.1722 9.04041L15.727 8.93961C15.2377 8.82901 14.9934 8.77371 14.7967 8.62461C14.6007 8.47551 14.4747 8.24941 14.2227 7.79721L13.9931 7.38561C13.1062 5.7952 12.6631 5 12.0002 5C11.3373 5 10.8942 5.7952 10.0073 7.38561" stroke="white" stroke-opacity="0.6" stroke-width="1.4" stroke-linecap="round"/>
</svg>
