<svg width="13" height="13" viewBox="0 0 13 13" fill="none" xmlns="http://www.w3.org/2000/svg">
<g clip-path="url(#clip0_408_7978)">
<path d="M11.7512 5.23656L10.5148 4.00019C10.4033 3.88899 10.2523 3.82654 10.0948 3.82654C9.93734 3.82654 9.7863 3.88899 9.6748 4.00019L4.4248 9.25169V11.3266H6.49968L11.7512 6.07656C11.8624 5.96507 11.9248 5.81403 11.9248 5.65656C11.9248 5.49909 11.8624 5.34805 11.7512 5.23656ZM6.1888 10.5766H5.1748V9.56256L8.7148 6.02219L9.72918 7.03619L6.1888 10.5766ZM10.2598 6.50594L9.2458 5.49194L10.0959 4.64181L11.1099 5.65581L10.2598 6.50594Z" fill="#C4C4C4"/>
<path d="M4.7998 6.45154H5.5498V3.82654H6.6748V3.07654H3.6748V3.82654H4.7998V6.45154Z" fill="#C4C4C4"/>
<path d="M3.6748 7.57654H2.1748V1.57654H8.1748V3.07654H8.9248V1.57654C8.9248 1.37763 8.84579 1.18686 8.70513 1.04621C8.56448 0.905556 8.37372 0.826538 8.1748 0.826538H2.1748C1.97589 0.826538 1.78513 0.905556 1.64447 1.04621C1.50382 1.18686 1.4248 1.37763 1.4248 1.57654V7.57654C1.4248 7.77545 1.50382 7.96622 1.64447 8.10687C1.78513 8.24752 1.97589 8.32654 2.1748 8.32654H3.6748V7.57654Z" fill="#C4C4C4"/>
</g>
<defs>
<clipPath id="clip0_408_7978">
<rect width="12" height="12" fill="white" transform="translate(0.674805 0.0765381)"/>
</clipPath>
</defs>
</svg>
