<svg width="16" height="16" viewBox="0 0 16 16" fill="none" xmlns="http://www.w3.org/2000/svg">
<path d="M14 3.98683C11.78 3.76683 9.54667 3.6535 7.32 3.6535C6 3.6535 4.68 3.72016 3.36 3.8535L2 3.98683M5.66667 3.3135L5.81333 2.44016C5.92 1.80683 6 1.3335 7.12667 1.3335H8.87333C10 1.3335 10.0867 1.8335 10.1867 2.44683L10.3333 3.3135" stroke="white" stroke-opacity="0.7" stroke-linecap="round" stroke-linejoin="round"/>
<path d="M12.5667 6.09326L12.1334 12.8066C12.06 13.8533 12 14.6666 10.14 14.6666H5.86002C4.00002 14.6666 3.94002 13.8533 3.86668 12.8066L3.43335 6.09326" stroke="white" stroke-opacity="0.7" stroke-linecap="round" stroke-linejoin="round"/>
<path d="M6.88672 11H9.10672" stroke="white" stroke-opacity="0.7" stroke-linecap="round" stroke-linejoin="round"/>
<path d="M6.33337 8.3335H9.66671" stroke="white" stroke-opacity="0.7" stroke-linecap="round" stroke-linejoin="round"/>
</svg>
