<svg width="16" height="16" viewBox="0 0 16 16" fill="none" xmlns="http://www.w3.org/2000/svg">
<path fill-rule="evenodd" clip-rule="evenodd" d="M8.71167 2.0361C8.90694 2.23136 8.90694 2.54794 8.71167 2.7432L2.95842 8.49646C1.68053 9.77435 1.68053 11.8462 2.95842 13.1241C4.23631 14.402 6.30818 14.402 7.58607 13.1241L9.47686 11.2333L9.47671 11.2332L14.236 6.47388C15.0307 5.67918 15.0307 4.39072 14.236 3.59602C13.4413 2.80133 12.1529 2.80133 11.3582 3.59602L6.70627 8.24792L6.59886 8.35533L6.59885 8.35534L6.10875 8.84541L6.10874 8.84542L5.72465 9.22951L5.72396 9.22882C5.44936 9.55407 5.4653 10.0411 5.77177 10.3475C6.09506 10.6708 6.61921 10.6708 6.9425 10.3475L11.6691 5.62098C11.8643 5.42572 12.1809 5.42572 12.3762 5.62098C12.5714 5.81624 12.5714 6.13283 12.3762 6.32809L7.64961 11.0546C6.9358 11.7685 5.77848 11.7685 5.06467 11.0546C4.35085 10.3408 4.35085 9.18352 5.06466 8.4697C5.07978 8.45459 5.09562 8.44064 5.11208 8.42787L5.40164 8.1383L5.40165 8.13829L5.89175 7.64822L5.89176 7.64821L5.99916 7.54081L10.6511 2.88892C11.8363 1.70369 13.7579 1.7037 14.9431 2.88892C16.1283 4.07414 16.1283 5.99576 14.9431 7.18098L13.0323 9.0918C13.029 9.09532 13.0256 9.09879 13.0222 9.10223L8.29318 13.8312C6.62476 15.4996 3.91973 15.4996 2.25131 13.8312C0.582896 12.1628 0.582896 9.45776 2.25131 7.78935L8.00457 2.0361C8.19983 1.84083 8.51641 1.84083 8.71167 2.0361Z" fill="white" fill-opacity="0.7"/>
</svg>
