<svg xmlns="http://www.w3.org/2000/svg" width="24" height="24" viewBox="0 0 24 24" fill="none">
<path d="M4 8.4V3H5.2V8.4C5.2 8.87739 5.38964 9.33523 5.72721 9.67279C6.06477 10.0104 6.52261 10.2 7 10.2C7.47739 10.2 7.93523 10.0104 8.27279 9.67279C8.61036 9.33523 8.8 8.87739 8.8 8.4V4.8C8.8 4.64087 8.73679 4.48826 8.62426 4.37574C8.51174 4.26321 8.35913 4.2 8.2 4.2C8.04087 4.2 7.88826 4.26321 7.77574 4.37574C7.66321 4.48826 7.6 4.64087 7.6 4.8V9H6.4V4.8C6.4 4.56362 6.44656 4.32956 6.53702 4.11117C6.62748 3.89278 6.76006 3.69435 6.92721 3.52721C7.09435 3.36006 7.29278 3.22748 7.51117 3.13702C7.72956 3.04656 7.96362 3 8.2 3C8.43638 3 8.67044 3.04656 8.88883 3.13702C9.10722 3.22748 9.30565 3.36006 9.47279 3.52721C9.63994 3.69435 9.77252 3.89278 9.86298 4.11117C9.95344 4.32956 10 4.56362 10 4.8V8.4C10 9.19565 9.68393 9.95871 9.12132 10.5213C8.55871 11.0839 7.79565 11.4 7 11.4C6.20435 11.4 5.44129 11.0839 4.87868 10.5213C4.31607 9.95871 4 9.19565 4 8.4Z" fill="#BDBDBD"/>
<path fill-rule="evenodd" clip-rule="evenodd" d="M19.0002 3H11.2002V8.4C11.2002 9.51391 10.7577 10.5822 9.97004 11.3698C9.18239 12.1575 8.1141 12.6 7.0002 12.6H5.2002V19.2C5.2002 19.6774 5.38984 20.1352 5.7274 20.4728C6.06497 20.8104 6.52281 21 7.0002 21H19.0002C19.4776 21 19.9354 20.8104 20.273 20.4728C20.6106 20.1352 20.8002 19.6774 20.8002 19.2V4.8C20.8002 4.32261 20.6106 3.86477 20.273 3.52721C19.9354 3.18964 19.4776 3 19.0002 3ZM17.2002 7.8H12.4002V9H17.2002V7.8ZM17.2002 11.4H12.4002V12.6H17.2002V11.4ZM8.8002 15H17.2002V16.2H8.8002V15Z" fill="#BDBDBD"/>
</svg>