<svg width="20" height="18" viewBox="0 0 20 18" fill="none" xmlns="http://www.w3.org/2000/svg">
<path fill-rule="evenodd" clip-rule="evenodd" d="M10.2874 1.31626L10.197 1.2697C9.84527 1.08858 9.49786 0.887814 9.1519 0.687776C8.92321 0.555388 8.69451 0.423 8.47019 0.299341C8.39299 0.256424 8.32452 0.212051 8.26553 0.173498C7.99532 -0.00398948 7.85257 -0.0970968 7.45272 0.131309C7.30705 0.213507 7.17231 0.289157 7.03976 0.361898C6.9072 0.434639 6.77173 0.50738 6.62097 0.58594C6.3209 0.743787 6.03102 0.901634 5.74188 1.06385C5.42651 1.23915 5.15485 1.39409 4.87881 1.55194L4.74771 1.62468C4.25391 1.90764 3.64503 2.25607 3.18327 2.46338L3.08203 2.50921L3.14176 4.86674L1.40324 5.85456C1.3046 5.88964 1.2091 5.93295 1.11774 5.98404C1.02524 6.03496 0.939297 6.08951 0.867921 6.13534L0.795088 6.18407L0.78125 11.3487L2.9757 12.7678L3.16142 15.2309L6.60859 17.189C6.71565 17.2509 6.83437 17.3171 6.95381 17.384C7.11113 17.4713 7.26845 17.5593 7.42795 17.6553C7.89627 17.9354 7.94871 17.9026 8.25752 17.7106C8.31578 17.6742 8.38643 17.6298 8.46727 17.5862C8.66319 17.4793 8.87004 17.3578 9.07907 17.2356C9.44001 17.0145 9.81247 16.8127 10.1949 16.6311L10.2939 16.5875L10.3005 13.2305L10.2874 1.31626ZM9.57215 16.1197C9.39662 16.2238 8.96618 16.466 8.58235 16.6769C8.24076 16.8646 7.94507 17.0239 7.92176 17.029C7.88389 17.037 7.61295 16.9032 7.30122 16.738C6.9895 16.5729 6.64573 16.3707 6.44544 16.2398C6.58237 16.1525 6.77028 16.0492 6.91448 15.9692L7.03247 15.903C7.27573 15.7662 7.36823 15.7953 7.45126 15.8222C7.59328 15.8673 7.72074 15.9081 7.98294 15.7386C8.09343 15.6708 8.18011 15.5704 8.23099 15.4513C8.28188 15.3322 8.29446 15.2003 8.26699 15.0737C8.2492 14.9818 8.21491 14.8938 8.16575 14.814C8.1158 14.7344 8.05132 14.6648 7.97565 14.6089C7.87177 14.5319 7.74644 14.4891 7.61709 14.4865C7.48775 14.4839 7.3608 14.5216 7.25388 14.5944C7.18804 14.6288 7.13037 14.6769 7.08476 14.7355C7.03915 14.7942 7.00666 14.8619 6.9895 14.9341C6.97404 14.9843 6.95405 15.033 6.92978 15.0796C6.87078 15.1879 6.6217 15.3123 6.41995 15.4134C6.34712 15.452 6.27429 15.4862 6.21893 15.5175C6.1461 15.5575 6.08929 15.5953 6.03394 15.6309C5.85113 15.7488 5.71784 15.8339 5.51173 15.7124C5.30561 15.5909 5.09585 15.4753 4.88173 15.3581C4.53286 15.1668 4.18108 14.9741 3.87882 14.7704L3.71276 12.7744C3.92932 12.6791 4.13929 12.5695 4.34131 12.4463C4.58457 12.3052 4.80015 12.1801 4.91377 12.1765C4.96273 12.1765 5.01155 12.1816 5.05944 12.1917C5.13512 12.2131 5.21456 12.2176 5.29219 12.2051C5.36982 12.1925 5.44376 12.1631 5.50881 12.119C5.80015 11.9481 5.89046 11.7015 5.85623 11.468C5.82633 11.2912 5.7341 11.131 5.59621 11.0162C5.5287 10.9561 5.44945 10.9106 5.36347 10.8826C5.27748 10.8545 5.18661 10.8446 5.09658 10.8533C4.86934 10.8817 4.65012 11.0446 4.5212 11.4178C4.46221 11.5894 4.42579 11.6062 4.19273 11.7138C4.09877 11.7575 3.98006 11.8128 3.82274 11.892C3.70329 11.9531 3.61517 12.0063 3.54452 12.0492C3.39084 12.143 3.35952 12.1626 3.10242 11.991C2.97715 11.9073 2.80308 11.7997 2.61008 11.6818C2.21241 11.4374 1.73609 11.145 1.51759 10.9544L1.50302 8.9846C1.68947 8.90385 1.87665 8.80565 2.06165 8.70891C2.26427 8.59695 2.47288 8.49618 2.68655 8.40703C2.72926 8.38536 2.77611 8.37305 2.82396 8.37092C2.87181 8.36879 2.91957 8.37688 2.96404 8.39467C3.08495 8.43831 3.20075 8.47905 3.44984 8.36848C3.5483 8.32705 3.63448 8.26109 3.70015 8.17692C3.76582 8.09274 3.80877 7.99315 3.82492 7.88767C3.84129 7.78241 3.83408 7.67483 3.8038 7.5727C3.77371 7.46949 3.72011 7.37464 3.64721 7.29555C3.57465 7.21642 3.483 7.15715 3.38101 7.12341C3.27902 7.08967 3.17007 7.08257 3.06455 7.10279C2.69675 7.16317 2.62756 7.34284 2.56055 7.53924C2.54034 7.61047 2.50452 7.67631 2.45567 7.732L1.50229 8.15826L1.49719 6.56887L1.96478 6.32737L3.51029 5.51559C3.81837 5.65598 4.18763 5.89893 4.55034 6.13752C4.80744 6.30628 5.06017 6.47286 5.28959 6.60233L5.1767 8.47323C4.99899 8.61871 4.54524 8.87912 4.17598 9.09225C4.01356 9.18609 3.8679 9.27047 3.7652 9.33375C3.70766 9.36939 3.6545 9.40649 3.61371 9.4305C3.59023 9.44745 3.56592 9.46323 3.54088 9.47778L3.45712 9.46323L3.33622 9.44359C2.9655 9.38613 2.72151 9.51633 2.59114 9.71782C2.51027 9.84481 2.47366 9.99491 2.48699 10.1448C2.49866 10.294 2.55614 10.436 2.65159 10.5514C2.80964 10.7391 3.06747 10.8424 3.40322 10.7377C3.70329 10.6438 3.74772 10.4991 3.8038 10.3194C3.81601 10.2756 3.8316 10.2328 3.85042 10.1914C3.86207 10.1666 3.87081 10.1448 3.87809 10.1252C3.9014 10.1121 3.93053 10.0946 3.96695 10.0706C4.1636 9.94259 4.72951 9.58689 5.17087 9.35558C5.40321 9.23337 5.58456 9.14535 5.60787 9.15336C5.70401 9.18536 6.0201 9.38322 6.27647 9.54397C6.40611 9.62472 6.52192 9.69746 6.58237 9.73237L7.35439 10.1826L7.41994 10.2226L7.45199 10.2452L7.46364 10.2539L7.47602 10.2641L7.5423 10.3274C7.55104 10.3354 7.5576 11.5203 7.56124 12.0623V12.2077C7.19707 12.391 6.7914 12.6369 6.42723 12.8559L6.15921 13.0173C5.92323 13.1585 5.89483 13.1439 5.86132 13.1279C5.77174 13.0835 5.6705 13.0326 5.39811 13.1206C5.31561 13.1482 5.23972 13.1925 5.17524 13.2508C5.07702 13.3411 5.00611 13.457 4.97058 13.5855C4.93309 13.7178 4.93537 13.8581 4.97714 13.9892C5.0071 14.0823 5.05678 14.1679 5.1228 14.2401C5.15899 14.2799 5.20011 14.3148 5.24516 14.3441C5.37237 14.4236 5.5216 14.4605 5.67123 14.4496C5.82337 14.4404 5.96801 14.3805 6.08201 14.2794C6.123 14.2425 6.159 14.2005 6.18907 14.1543C6.26208 14.0434 6.32566 13.9266 6.37916 13.8051C6.3875 13.7778 6.40223 13.7529 6.42214 13.7324C6.51581 13.668 6.61308 13.609 6.71347 13.5556C6.87661 13.464 7.11259 13.3301 7.44616 13.133L8.02882 12.7984L8.03975 12.7919C8.10479 12.7535 8.16454 12.7068 8.21746 12.6529L8.25169 12.6187L8.30413 12.5685L8.26917 9.89167L5.95528 8.52269L6.01646 6.63143C6.22549 6.48086 6.5729 6.31719 6.92177 6.1528C7.39008 5.93457 7.85985 5.71053 8.07034 5.48504L8.11477 5.37447L8.15045 3.42138C8.17274 3.39655 8.1971 3.37368 8.22329 3.353C8.32307 3.27153 8.41192 3.19879 8.45052 2.95074C8.47908 2.81691 8.46493 2.67751 8.41006 2.55212C8.35519 2.42674 8.26237 2.32168 8.14463 2.2517C8.05924 2.20219 7.96479 2.17025 7.86685 2.15776C7.76891 2.14527 7.66945 2.15248 7.57435 2.17896C7.44814 2.21288 7.3358 2.28556 7.2532 2.38672C7.1706 2.48788 7.12192 2.61241 7.11405 2.7427C7.07472 3.12241 7.17158 3.18933 7.2903 3.2708C7.34929 3.31154 7.42213 3.36173 7.40975 3.85273C7.40975 3.98876 7.40975 4.13351 7.40975 4.27972C7.40975 4.55104 7.40975 4.82819 7.38571 5.08496C7.27355 5.14315 7.1257 5.22535 6.96401 5.31482C6.43233 5.60942 5.72586 5.99858 5.62462 5.9513C5.3849 5.82374 5.15223 5.68339 4.92761 5.53086C4.83074 5.46758 4.74262 5.41084 4.69018 5.37811C4.61734 5.33155 4.52776 5.2799 4.43599 5.22608C4.24273 5.11697 4.05507 4.99826 3.87372 4.87037L3.83658 2.95729L5.28012 2.19351C5.29614 2.5223 5.31435 2.91656 5.29833 3.17697C5.29555 3.2276 5.28234 3.27712 5.25953 3.32243C5.23673 3.36773 5.20481 3.40786 5.16577 3.44029C5.02011 3.58577 4.89629 3.71161 5.03686 4.11969C5.07285 4.21971 5.13618 4.30765 5.21967 4.37356C5.31239 4.44856 5.42179 4.5002 5.53868 4.52413C5.66113 4.55043 5.78841 4.54339 5.90721 4.50376C6.01796 4.46563 6.11584 4.39736 6.1898 4.30663C6.59256 3.8149 6.24078 3.48612 6.02957 3.28826L6.01573 1.7607C6.11041 1.70906 6.24807 1.63268 6.40684 1.54248C6.94872 1.24061 7.74259 0.797615 7.80523 0.796888C7.82999 0.796888 8.11986 0.950371 8.46072 1.13804C8.88533 1.37009 9.3704 1.65086 9.56559 1.77598L9.57215 7.93786C9.46363 7.88039 9.32524 7.80256 9.18759 7.71963C9.00383 7.61931 8.82716 7.50654 8.65882 7.38212L8.65009 7.36902L8.54084 7.07806L8.52918 7.05333C8.48577 6.97944 8.42808 6.91491 8.35948 6.86347C8.29209 6.81227 8.21505 6.77516 8.13297 6.75436C7.82271 6.67726 7.58746 6.782 7.44252 6.96167C7.3822 7.03671 7.33807 7.12339 7.31288 7.21627C7.28752 7.30781 7.27938 7.40326 7.28884 7.49777C7.29809 7.61978 7.34368 7.73624 7.41973 7.83217C7.49579 7.92809 7.59885 7.9991 7.71564 8.03606C7.96691 8.11534 8.07981 8.07243 8.17886 8.03606C8.22693 8.01714 8.26844 8.00114 8.44761 8.1088C8.5554 8.17354 8.6581 8.23318 8.76298 8.29429C9.04848 8.46086 9.34564 8.63544 9.57142 8.79983L9.5787 11.8346L9.57215 16.1197Z" fill="white"/>
<path fill-rule="evenodd" clip-rule="evenodd" d="M19.6886 8.97857C19.5859 7.55212 18.9464 6.74396 18.0586 6.13512C18.0586 6.11912 18.0659 6.10312 18.0688 6.08712C18.7804 2.4057 15.315 -0.00129175 12.4141 0.38569C11.5619 0.531171 10.9479 0.9327 10.6996 1.61283L10.7047 14.429L10.7112 15.467L10.7163 15.4525V15.6147L10.7047 15.6547L10.7163 15.6656V16.2839L10.7251 16.2737C10.9756 16.9517 11.5881 17.3539 12.4388 17.4965C15.2392 17.8704 18.567 15.638 18.1511 12.169C18.5335 11.8899 18.8555 11.5366 19.0979 11.1302C19.5291 10.3919 19.7359 9.67324 19.6886 8.97857ZM16.76 3.17967C17.2997 3.92671 17.4213 4.80615 17.2815 5.67322C16.7855 5.41063 16.248 5.16913 15.7032 4.8978C13.7156 3.90926 12.0004 2.66102 11.6209 1.66229C12.685 0.512985 15.5233 1.47098 16.76 3.17967ZM12.055 3.48518C12.5648 3.93908 13.2487 4.40462 14.063 4.87453C14.9472 5.38371 16.1817 5.79543 17.0994 6.40936C16.8746 7.08417 16.5356 7.7155 16.0972 8.27589C14.7615 6.7927 13.0892 5.40553 12.055 3.48518ZM11.5 10.6378L11.5364 4.13548L11.5321 4.12748L11.4723 4.02564C11.4703 4.0215 11.4679 4.0176 11.4651 4.014L11.4723 4.0271C11.4947 4.05955 11.5146 4.09359 11.5321 4.12893C12.5983 5.98673 14.2793 7.50993 15.5488 8.92983C14.2808 10.3534 12.5896 11.878 11.516 13.7402L11.5 10.6378ZM11.583 15.3739C12.5204 12.9095 14.543 11.3128 16.0987 9.57649C16.642 10.2591 17.0317 11.0505 17.2414 11.8969C17.1963 11.9231 17.1511 11.9486 17.1045 11.9733C15.8263 12.7145 14.9574 13.004 13.9057 13.5962C12.9057 14.1599 12.1832 14.7149 11.5925 15.3616L11.583 15.3739ZM16.7833 14.7018C15.6041 16.3319 12.9669 17.279 11.803 16.3654C12.0943 15.8351 12.9304 15.0815 13.9537 14.4785C15.3521 13.6536 16.4774 13.1692 17.3543 12.6796C17.3871 13.3903 17.2254 14.0908 16.7833 14.7018ZM17.9799 11.3368C17.7206 10.4421 17.2421 9.66378 16.6529 8.92546C17.1526 8.29844 17.5706 7.63795 17.8401 6.90109C19.2989 8.13623 19.2356 10.0951 17.9799 11.3368Z" fill="white"/>
</svg>
